<svg width="39" height="35" viewBox="0 0 39 35" fill="none" xmlns="http://www.w3.org/2000/svg">
<path d="M35.6873 0.00318359C35.1237 0.0276018 34.6066 0.18905 34.1522 0.367418C33.7325 0.532069 32.2252 1.16309 29.8251 2.16582C27.425 3.16855 24.2447 4.49804 20.8547 5.91819C14.0748 8.75849 6.45597 11.9535 2.55208 13.5899C2.41802 13.6455 1.87356 13.8115 1.27223 14.269C0.669508 14.7276 0 15.7227 0 16.8111C0 17.689 0.440003 18.5832 0.971316 19.0951C1.50263 19.6071 2.0411 19.8464 2.49114 20.0247V20.0209C4.01239 20.6246 8.55533 22.4353 9.63698 22.8665C10.0206 24.0117 11.6677 28.9144 12.0596 30.1473H12.0557C12.3327 31.02 12.6027 31.5887 12.9775 32.0634C13.165 32.3007 13.3887 32.5158 13.6632 32.6856C13.7685 32.7508 13.8851 32.8013 14.0022 32.8487C14.0185 32.8556 14.0353 32.8574 14.0517 32.8639L14.006 32.8525C14.04 32.8661 14.0704 32.8862 14.105 32.8981C14.1614 32.9174 14.2005 32.9168 14.2764 32.9322C14.5436 33.0141 14.8103 33.0688 15.0573 33.0688C16.1175 33.0688 16.7676 32.4959 16.7676 32.4959L16.8095 32.4655L21.388 28.6069L26.995 33.7745C27.0974 33.9185 27.8997 35 29.7565 35C30.8645 35 31.7406 34.4537 32.301 33.8807C32.8615 33.3078 33.2106 32.7215 33.3676 31.9268L33.3714 31.923C33.4965 31.2816 38.8641 4.4347 38.8641 4.4347L38.8526 4.48023C39.0197 3.73749 39.069 3.01921 38.8717 2.28723C38.6743 1.55526 38.1418 0.840922 37.5004 0.466064C36.8591 0.0912067 36.2508 -0.0212354 35.6873 0.00318359ZM34.9179 4.25637C34.7057 5.31708 29.8975 29.3779 29.6004 30.8872L21.5023 23.4242L16.0286 28.034L17.5446 22.1304C17.5446 22.1304 28.0029 11.5858 28.6329 10.9719C29.1399 10.4805 29.2461 10.3082 29.2461 10.1372C29.2461 9.90995 29.1287 9.74644 28.8576 9.74644C28.6138 9.74644 28.2827 9.97913 28.1072 10.0879C25.8768 11.473 16.377 16.8654 11.7053 19.5125C11.4242 19.4002 7.20323 17.7119 4.92895 16.8073C8.97429 15.1114 15.9087 12.2054 22.3669 9.49983C25.7563 8.07992 28.9357 6.74923 31.3335 5.74746C33.3576 4.90184 34.4134 4.46399 34.9179 4.25637ZM29.5432 31.1642H29.5471L29.5432 31.1755C29.5457 31.163 29.5414 31.174 29.5432 31.1642Z" fill="#CCCCCC"/>
</svg>
