<?xml version="1.0" standalone="no"?>
<!DOCTYPE svg PUBLIC "-//W3C//DTD SVG 20010904//EN"
 "http://www.w3.org/TR/2001/REC-SVG-20010904/DTD/svg10.dtd">
<svg version="1.0" xmlns="http://www.w3.org/2000/svg"
 width="877.000000pt" height="878.000000pt" viewBox="0 0 877.000000 878.000000"
 preserveAspectRatio="xMidYMid meet">

<g transform="translate(0.000000,878.000000) scale(0.100000,-0.100000)"
fill="#000000" stroke="none">
<path d="M4254 8486 c-28 -28 -34 -41 -34 -77 0 -24 7 -53 15 -63 21 -27 20
-30 -21 -49 -23 -11 -40 -29 -50 -52 -19 -46 -18 -63 6 -108 l20 -37 -34 -14
c-45 -19 -66 -52 -66 -105 0 -32 6 -51 21 -67 l21 -23 -34 -14 c-71 -30 -98
-111 -58 -172 25 -38 25 -45 -1 -45 -11 0 -34 -13 -50 -29 -24 -25 -29 -38
-29 -79 0 -35 6 -57 20 -75 l21 -26 -25 -7 c-14 -3 -39 -22 -56 -40 -39 -45
-41 -99 -5 -142 25 -30 24 -42 -6 -42 -9 0 -31 -13 -48 -29 -27 -25 -31 -36
-31 -79 0 -39 6 -57 25 -80 32 -38 31 -42 -3 -42 -66 0 -113 -89 -81 -153 6
-12 23 -32 37 -44 23 -19 24 -23 9 -23 -11 0 -34 -7 -53 -16 -93 -44 -78 -191
22 -210 77 -14 134 35 134 116 0 36 -6 48 -36 76 l-35 34 26 0 c99 0 147 118
78 192 l-25 27 41 12 c82 25 112 122 56 183 -22 24 -23 27 -7 32 46 15 62 25
79 51 23 34 22 106 0 131 -22 25 -21 42 2 42 11 0 33 14 50 31 26 25 31 39 31
76 0 30 -7 53 -20 70 l-20 26 40 20 c68 33 89 102 50 164 l-20 33 40 20 c22
11 44 29 50 39 15 29 12 104 -5 127 -20 27 -19 30 15 44 65 27 89 104 51 167
l-20 31 29 12 c122 50 89 220 -43 220 -31 0 -46 -7 -73 -34z"/>
<path d="M4544 8504 c-58 -28 -79 -96 -49 -155 17 -31 13 -49 -10 -49 -7 0
-25 -14 -39 -31 -31 -36 -35 -101 -10 -138 14 -19 14 -25 3 -32 -8 -5 -19 -9
-26 -9 -6 0 -23 -14 -37 -31 -30 -35 -35 -93 -11 -125 22 -29 18 -40 -16 -54
-17 -7 -38 -24 -46 -37 -21 -31 -20 -96 2 -129 14 -22 15 -28 4 -35 -8 -5 -19
-9 -26 -9 -6 0 -23 -14 -37 -31 -32 -38 -35 -102 -7 -139 l19 -24 -39 -18
c-28 -12 -44 -28 -54 -52 -20 -47 -19 -64 5 -111 24 -48 24 -45 -1 -45 -11 0
-34 -13 -50 -29 -24 -25 -29 -38 -29 -78 0 -35 6 -55 20 -71 11 -12 20 -23 20
-26 0 -2 -16 -10 -36 -16 -70 -23 -94 -107 -49 -174 24 -35 24 -36 4 -36 -12
0 -36 -15 -55 -34 -29 -29 -34 -41 -34 -79 0 -34 6 -53 25 -75 l25 -30 -34
-12 c-83 -27 -113 -119 -58 -178 76 -82 198 -35 196 74 -1 31 -8 51 -22 67
-29 30 -28 34 8 42 71 16 106 120 59 179 -12 15 -20 28 -18 30 2 1 19 9 38 16
37 15 71 62 71 100 0 14 -9 43 -20 65 -24 48 -24 45 -1 45 10 0 33 13 50 29
27 25 31 36 31 79 0 34 -6 57 -19 74 l-20 24 34 13 c69 25 95 103 56 168 l-20
31 29 12 c49 20 73 55 73 104 -1 24 -9 55 -18 69 -16 26 -16 26 17 40 19 8 42
27 52 42 22 34 23 101 2 124 -22 24 -21 28 20 47 23 11 41 29 50 50 18 44 18
63 -5 106 l-18 37 27 11 c49 20 73 55 73 105 0 28 -6 52 -16 63 -23 25 -22 28
13 40 35 13 70 65 70 105 0 43 -28 87 -65 103 -43 18 -62 17 -101 -2z"/>
<path d="M4021 8497 c-62 -31 -82 -114 -42 -168 12 -15 21 -31 21 -34 0 -3 -9
-5 -21 -5 -12 0 -36 -15 -55 -34 -28 -28 -34 -41 -34 -77 0 -28 8 -53 20 -69
24 -31 25 -40 4 -40 -29 0 -73 -40 -83 -76 -12 -42 0 -88 31 -121 l21 -23 -26
0 c-15 0 -40 -13 -61 -34 -31 -28 -36 -40 -36 -77 0 -31 7 -53 24 -74 l24 -30
-41 -20 c-58 -28 -84 -81 -68 -135 6 -22 23 -48 38 -59 25 -20 25 -21 4 -21
-106 0 -152 -156 -61 -208 30 -17 42 -39 16 -29 -8 3 -31 1 -51 -4 -44 -13
-75 -58 -75 -113 0 -53 52 -106 105 -106 50 0 90 26 110 71 14 31 15 43 5 73
-6 20 -23 45 -37 56 -14 11 -24 21 -22 23 2 1 24 9 49 17 81 27 103 123 44
187 l-26 28 33 7 c48 9 89 59 89 106 0 40 -32 102 -52 102 -7 1 5 7 26 15 62
22 89 55 89 110 0 31 -7 55 -21 74 -23 31 -20 41 11 41 10 0 32 14 48 31 37
40 40 102 8 144 -18 22 -20 29 -8 36 8 5 19 9 25 9 5 0 23 13 39 30 37 39 41
104 7 149 l-23 31 22 0 c11 0 36 15 55 34 28 28 34 41 34 78 0 52 -21 85 -66
104 -41 17 -62 17 -93 1z"/>
<path d="M4823 8493 c-12 -2 -34 -18 -48 -35 -23 -27 -26 -39 -23 -82 3 -28 8
-59 12 -68 6 -13 2 -20 -17 -27 -40 -15 -67 -58 -67 -106 0 -26 6 -48 15 -55
22 -18 19 -26 -20 -49 -19 -11 -43 -36 -52 -55 -16 -35 -14 -58 13 -123 3 -7
-5 -17 -19 -22 -60 -23 -88 -116 -51 -169 14 -21 14 -23 -19 -38 -61 -29 -83
-94 -52 -155 17 -31 13 -49 -10 -49 -7 0 -25 -14 -39 -31 -31 -36 -35 -101
-10 -138 14 -19 14 -25 3 -32 -8 -5 -19 -9 -26 -9 -6 0 -23 -14 -37 -31 -33
-38 -35 -95 -6 -132 l21 -26 -40 -21 c-22 -11 -46 -30 -52 -42 -17 -32 -14
-93 5 -124 10 -14 16 -27 14 -28 -2 -1 -17 -8 -34 -15 -60 -24 -84 -115 -44
-171 l19 -27 -37 -15 c-110 -43 -78 -218 39 -218 94 0 149 96 100 177 l-20 31
29 12 c49 20 73 55 73 104 0 24 -7 56 -16 69 -16 24 -15 25 14 37 61 25 91
117 54 166 -21 27 -19 31 21 50 23 11 41 29 50 50 19 44 18 63 -5 107 -12 24
-15 37 -7 37 6 0 28 13 47 30 55 44 57 83 11 173 -2 4 4 7 13 7 9 0 32 15 51
34 27 27 34 42 34 73 0 21 -8 49 -17 63 -16 22 -16 24 1 34 80 47 101 101 67
167 -18 34 -19 39 -5 39 9 0 31 15 50 34 39 39 45 86 19 137 -15 28 -15 30 7
38 61 23 89 94 64 156 -9 21 -16 39 -16 40 0 1 12 8 28 14 88 38 85 170 -5
207 -33 14 -40 15 -80 7z"/>
<path d="M3753 8464 c-65 -32 -80 -128 -28 -180 26 -26 25 -29 -22 -39 -40 -8
-73 -58 -73 -108 0 -26 9 -46 31 -72 30 -33 30 -35 9 -35 -60 0 -119 -77 -105
-139 4 -17 19 -44 35 -59 l28 -28 -44 -12 c-94 -25 -113 -133 -35 -199 58 -49
162 -7 177 72 6 36 -19 103 -43 112 -23 9 -14 21 20 27 54 10 82 48 82 111 0
43 -5 59 -24 79 -23 24 -23 26 -5 32 10 3 29 10 41 14 58 23 77 128 33 175
-26 28 -27 27 18 45 88 35 96 161 12 205 -37 19 -67 19 -107 -1z"/>
<path d="M5083 8453 c-12 -2 -34 -18 -48 -35 -23 -27 -26 -39 -23 -82 3 -28 8
-58 12 -67 5 -12 -1 -19 -22 -28 -56 -23 -81 -110 -45 -161 9 -13 13 -25 7
-27 -72 -24 -103 -86 -79 -157 14 -37 13 -42 -2 -51 -10 -5 -30 -22 -45 -37
-33 -31 -38 -93 -12 -133 15 -23 15 -24 -23 -44 -30 -15 -42 -29 -51 -58 -11
-39 -7 -89 9 -99 15 -9 10 -34 -6 -34 -8 0 -28 -14 -45 -31 -25 -26 -30 -40
-30 -79 0 -30 6 -52 15 -60 21 -18 19 -24 -15 -37 -33 -13 -70 -66 -70 -103 1
-14 7 -36 15 -50 19 -33 19 -50 -1 -50 -8 0 -29 -13 -45 -29 -23 -24 -29 -38
-29 -73 0 -24 7 -53 15 -64 19 -25 19 -34 -1 -34 -9 0 -31 -15 -50 -34 -27
-27 -34 -42 -34 -72 0 -22 7 -48 15 -58 21 -27 19 -46 -4 -46 -32 0 -71 -56
-71 -100 0 -51 15 -83 50 -103 45 -27 94 -22 133 13 52 46 54 85 9 173 -2 4 5
7 16 7 11 0 34 16 51 35 35 40 40 82 15 130 -11 22 -12 31 -3 34 7 2 28 18 47
36 31 28 35 38 35 79 0 26 -5 52 -11 58 -19 19 -14 35 13 42 53 13 85 116 50
162 -20 27 -19 31 14 42 41 14 66 57 65 110 -1 23 -6 48 -12 54 -18 18 -14 38
7 38 11 0 31 14 45 31 30 36 35 96 10 134 -15 23 -14 24 13 38 62 33 85 90 59
152 -20 46 -20 45 0 45 8 0 29 13 45 29 24 24 29 38 29 76 0 25 -7 57 -16 70
-15 23 -15 25 0 25 8 0 29 12 46 28 39 34 49 87 26 133 -9 17 -16 33 -16 34 0
2 13 8 30 15 40 17 60 51 60 104 0 77 -66 126 -147 109z"/>
<path d="M3494 8416 c-30 -13 -64 -66 -64 -100 0 -27 33 -86 52 -92 29 -9 21
-20 -24 -30 -110 -24 -116 -183 -9 -215 76 -23 151 31 151 108 0 32 -44 99
-70 106 -8 3 -2 5 13 6 115 5 161 152 65 211 -38 23 -70 25 -114 6z"/>
<path d="M5308 8377 c-49 -41 -63 -102 -32 -145 16 -23 12 -42 -10 -42 -19 0
-55 -43 -65 -77 -6 -20 -4 -43 5 -69 17 -49 17 -54 0 -54 -22 0 -65 -50 -72
-85 -3 -19 0 -46 10 -68 15 -37 15 -37 -14 -52 -44 -23 -63 -57 -58 -107 3
-24 8 -50 12 -59 5 -12 -2 -22 -28 -39 -49 -29 -65 -84 -44 -139 l16 -39 -37
-24 c-49 -31 -67 -84 -46 -135 20 -47 20 -46 -16 -62 -57 -25 -70 -90 -34
-173 5 -13 3 -18 -10 -18 -9 0 -30 -13 -46 -29 -24 -24 -29 -38 -29 -77 0 -29
6 -54 16 -65 14 -16 14 -18 -8 -29 -68 -36 -91 -90 -64 -154 l15 -37 -35 -21
c-43 -25 -54 -45 -54 -100 0 -50 19 -78 69 -103 30 -15 39 -15 73 -4 53 17 78
51 78 106 0 24 -5 54 -11 66 -9 17 -9 22 2 26 8 2 29 19 47 37 26 26 32 40 32
73 0 23 -7 52 -15 65 -14 21 -13 23 21 39 57 28 80 117 42 164 -12 14 -2 33
17 33 7 0 25 14 40 32 23 27 26 39 22 77 -2 25 -8 56 -12 69 -6 17 -3 22 9 22
25 0 65 47 72 85 3 19 0 46 -10 68 -15 37 -15 37 14 52 16 8 36 25 44 37 20
28 21 97 2 124 -13 19 -12 22 19 38 34 19 65 68 65 103 0 10 -7 31 -15 47 -16
30 -12 46 10 46 7 0 25 14 40 32 23 27 26 39 22 77 -2 25 -7 55 -11 66 -5 16
-1 23 21 32 56 25 80 104 46 153 -16 22 -16 24 2 34 11 6 32 23 47 38 23 22
28 35 28 73 0 40 -5 52 -34 81 -28 28 -41 34 -77 34 -31 0 -52 -7 -71 -23z"/>
<path d="M3211 8325 c-45 -51 -44 -104 3 -151 26 -26 42 -34 70 -34 48 0 94
25 106 56 34 89 -12 164 -100 164 -42 0 -52 -4 -79 -35z"/>
<path d="M5585 8321 c-58 -25 -87 -99 -61 -152 21 -42 21 -42 -15 -58 -51 -23
-73 -98 -45 -154 14 -26 14 -28 -14 -42 -16 -8 -36 -25 -44 -37 -21 -29 -21
-111 -1 -128 14 -11 11 -16 -21 -35 -62 -37 -80 -95 -49 -156 15 -28 15 -30
-8 -38 -42 -16 -67 -58 -67 -112 0 -26 5 -51 10 -54 18 -11 10 -33 -14 -39
-29 -7 -66 -63 -66 -100 0 -15 7 -40 15 -56 15 -29 14 -30 -15 -45 -44 -23
-63 -57 -58 -107 3 -24 8 -51 12 -60 6 -12 0 -21 -23 -32 -54 -29 -76 -102
-47 -155 13 -23 12 -26 -25 -53 -21 -15 -41 -39 -45 -53 -7 -27 -2 -79 10
-107 6 -12 0 -21 -23 -32 -35 -19 -61 -62 -61 -103 0 -38 34 -91 68 -104 41
-16 101 -4 131 25 22 22 26 35 25 79 0 28 -4 62 -8 73 -6 18 -3 23 17 28 30 7
67 63 67 100 0 15 -7 40 -15 56 -14 28 -14 29 20 49 53 31 70 96 41 154 -8 15
-11 27 -6 27 5 0 25 14 44 31 43 38 55 84 32 130 -16 33 -14 49 8 49 7 0 23
12 37 26 18 19 24 37 24 72 0 26 -4 57 -8 68 -6 18 -2 25 27 42 48 29 66 85
43 142 l-15 40 28 15 c16 8 36 25 44 37 20 28 20 97 1 122 -14 18 -12 21 25
43 27 16 42 34 48 57 11 37 5 83 -12 105 -8 11 -7 15 4 19 8 3 30 20 48 38 27
27 32 39 32 77 0 25 -4 49 -10 52 -19 12 -10 33 24 53 64 38 68 132 8 185 -23
21 -87 31 -117 18z"/>
<path d="M2964 8246 c-28 -28 -34 -42 -34 -76 0 -57 50 -110 104 -110 79 0
124 52 113 132 -7 55 -46 87 -105 88 -37 0 -50 -6 -78 -34z"/>
<path d="M5806 8209 c-43 -38 -54 -81 -32 -134 20 -46 21 -42 -9 -49 -52 -13
-81 -101 -53 -162 10 -22 10 -28 0 -32 -7 -2 -26 -15 -42 -29 -37 -31 -47 -78
-26 -126 15 -37 15 -37 -14 -52 -53 -28 -75 -101 -48 -161 10 -22 10 -28 0
-32 -7 -2 -26 -15 -41 -28 -37 -31 -47 -81 -26 -130 18 -44 18 -44 1 -44 -8 0
-28 -14 -45 -31 -34 -34 -41 -85 -19 -135 10 -22 10 -28 0 -32 -7 -2 -26 -15
-41 -28 -37 -31 -47 -81 -26 -130 16 -38 10 -53 -22 -54 -42 0 -71 -124 -37
-161 15 -16 14 -19 -16 -34 -35 -18 -70 -69 -70 -103 0 -12 7 -38 14 -57 8
-19 11 -35 6 -35 -5 0 -25 -14 -45 -31 -31 -27 -35 -37 -35 -79 0 -111 123
-157 201 -74 19 20 24 36 23 74 0 27 -6 56 -13 64 -11 13 -8 19 21 36 58 34
78 99 47 157 -11 21 -11 27 -1 31 7 2 26 15 42 28 37 32 48 90 26 136 -13 25
-14 33 -4 40 7 4 16 8 19 8 4 0 18 11 32 25 37 38 41 77 12 147 -5 13 0 20 19
28 31 11 66 65 66 100 0 14 -7 38 -15 54 -15 28 -9 45 17 46 4 0 19 12 33 27
28 31 35 96 14 135 -9 17 -8 23 7 31 63 36 85 90 62 154 -9 24 -12 43 -7 43 5
0 25 14 44 32 35 30 36 34 33 82 -3 28 -8 59 -12 68 -6 14 -2 20 18 28 55 20
83 111 50 158 -16 23 -12 42 10 42 7 0 24 13 39 28 22 23 27 38 27 76 0 41 -5
53 -34 82 -46 46 -100 48 -150 3z"/>
<path d="M2739 8165 c-15 -8 -34 -33 -43 -56 -16 -39 -16 -43 4 -85 34 -69
116 -83 174 -29 21 19 26 33 26 70 0 57 -12 80 -50 100 -36 19 -77 19 -111 0z"/>
<path d="M6053 8110 c-43 -26 -57 -77 -38 -134 14 -37 13 -42 -2 -51 -50 -29
-73 -63 -73 -107 0 -24 6 -53 14 -63 13 -18 11 -22 -25 -43 -52 -31 -69 -84
-46 -142 l15 -40 -28 -15 c-16 -8 -36 -25 -44 -37 -19 -27 -21 -100 -3 -129
10 -18 9 -23 -2 -27 -7 -2 -27 -16 -43 -31 -37 -33 -47 -87 -24 -132 9 -17 16
-33 16 -35 0 -1 -13 -7 -29 -12 -16 -6 -37 -22 -47 -37 -20 -30 -23 -110 -6
-127 18 -18 15 -24 -23 -47 -60 -35 -77 -115 -35 -166 9 -11 5 -17 -17 -28
-64 -34 -89 -98 -59 -158 9 -18 15 -33 14 -34 -2 -2 -18 -10 -36 -19 -33 -17
-62 -66 -62 -103 0 -10 7 -31 16 -48 14 -28 14 -31 -1 -40 -45 -27 -65 -49
-76 -84 -10 -32 -8 -43 9 -78 20 -39 69 -73 106 -73 29 0 83 32 100 60 19 34
20 86 2 120 -13 23 -12 26 25 48 28 16 42 33 50 61 11 38 9 52 -15 111 -4 10
3 19 23 28 59 26 83 111 47 167 -14 22 -14 25 -1 25 8 0 29 13 47 29 29 26 33
35 32 78 -1 26 -5 60 -9 76 -5 20 -4 27 7 27 22 0 67 52 74 86 3 18 -1 46 -10
68 -20 47 -21 43 8 50 56 14 86 104 55 162 -11 22 -11 28 -1 32 7 2 26 15 42
29 36 29 47 78 30 129 -12 34 -11 39 5 49 63 35 88 101 61 156 -20 40 -21 36
14 54 55 28 70 86 44 173 -4 15 -2 22 8 22 24 0 68 55 74 91 6 42 -21 99 -56
116 -37 19 -91 16 -127 -7z"/>
<path d="M3157 8096 c-48 -44 -48 -123 -1 -167 20 -19 37 -24 76 -24 43 0 53
4 79 33 41 46 41 107 0 151 -25 27 -36 31 -79 31 -38 0 -55 -5 -75 -24z"/>
<path d="M2502 8050 c-62 -38 -70 -114 -18 -166 56 -56 135 -44 171 26 28 54
13 105 -41 141 -37 24 -71 24 -112 -1z"/>
<path d="M2907 8002 c-75 -78 -13 -205 91 -188 94 15 129 138 55 196 -40 31
-112 28 -146 -8z"/>
<path d="M6316 8005 c-21 -7 -39 -15 -40 -17 -39 -52 -48 -116 -22 -154 13
-19 12 -22 -21 -39 -59 -32 -74 -85 -48 -170 5 -15 -1 -24 -25 -38 -55 -33
-74 -95 -44 -152 14 -28 14 -31 -2 -40 -10 -5 -31 -22 -46 -37 -31 -30 -38
-85 -16 -134 11 -23 10 -28 -2 -32 -8 -3 -30 -20 -48 -39 -31 -30 -34 -37 -30
-80 3 -27 8 -56 12 -65 6 -12 0 -21 -23 -32 -56 -30 -79 -115 -44 -166 9 -13
13 -25 7 -27 -40 -14 -74 -46 -85 -82 -11 -38 -10 -50 16 -113 5 -13 2 -18 -9
-18 -9 0 -30 -12 -46 -27 -39 -35 -51 -99 -26 -137 20 -32 20 -46 0 -46 -9 0
-31 -15 -50 -34 -27 -27 -34 -42 -34 -73 0 -22 7 -48 15 -59 19 -25 19 -44 -1
-44 -9 0 -32 -16 -51 -35 -33 -33 -35 -39 -31 -86 6 -59 35 -96 86 -105 104
-20 178 71 132 161 -11 22 -17 41 -13 43 54 19 103 76 103 119 0 13 -7 37 -15
54 -16 31 -13 49 9 49 18 0 63 51 69 81 6 23 0 57 -18 101 -4 11 0 18 15 23
31 10 69 56 76 91 4 21 0 45 -11 68 -10 20 -16 38 -14 39 2 2 16 8 32 15 16 7
36 29 49 57 20 40 21 49 9 78 -23 58 -24 67 -8 67 9 0 29 11 44 24 24 21 28
31 27 78 0 29 -4 63 -8 75 -7 19 -4 24 17 32 59 23 84 99 52 161 -15 29 -15
29 19 45 47 23 73 77 59 125 -6 19 -13 42 -17 51 -5 12 1 20 23 29 17 6 37 23
46 36 18 27 20 96 4 126 -9 17 -8 23 7 31 11 6 31 24 47 40 77 82 -18 219
-127 182z"/>
<path d="M3364 7949 c-29 -15 -54 -61 -54 -102 0 -52 54 -107 105 -107 72 0
115 44 115 119 0 58 -44 101 -102 100 -23 0 -52 -5 -64 -10z"/>
<path d="M2283 7925 c-34 -15 -63 -59 -63 -98 0 -37 41 -90 78 -101 24 -7 43
-5 72 7 l40 15 -6 -37 c-16 -98 85 -159 172 -106 20 13 21 12 11 -25 -14 -49
4 -93 48 -120 39 -24 66 -25 104 -5 l29 14 -1 -47 c-2 -55 22 -95 67 -112 93
-33 177 61 135 153 -23 51 -105 73 -154 41 l-24 -16 6 51 c5 48 4 52 -31 87
-32 32 -40 36 -79 32 -23 -3 -49 -8 -59 -12 -14 -6 -16 -1 -16 38 1 58 -21 92
-72 107 -33 10 -47 9 -77 -3 l-38 -14 4 48 c3 54 -11 78 -61 104 -33 17 -44
17 -85 -1z"/>
<path d="M2678 7903 c-75 -48 -52 -164 38 -193 27 -9 39 -8 74 10 24 12 45 32
51 48 15 37 5 101 -19 125 -28 28 -108 33 -144 10z"/>
<path d="M3114 7869 c-30 -15 -54 -61 -54 -104 0 -52 53 -105 105 -105 90 0
141 82 103 165 -21 48 -100 70 -154 44z"/>
<path d="M6500 7842 c-37 -37 -47 -90 -26 -133 20 -41 20 -49 -2 -49 -27 0
-72 -52 -78 -92 -4 -23 0 -46 11 -67 9 -18 15 -34 13 -36 -2 -1 -17 -9 -34
-18 -18 -10 -38 -32 -49 -57 -16 -36 -17 -46 -6 -73 24 -59 23 -61 -16 -82
-53 -28 -69 -77 -47 -142 16 -47 10 -62 -23 -63 -18 0 -52 -49 -59 -85 -4 -22
0 -45 11 -69 10 -20 16 -38 14 -39 -2 -2 -16 -8 -32 -15 -33 -14 -67 -67 -67
-105 0 -16 9 -42 20 -58 l21 -28 -33 -14 c-18 -8 -41 -24 -51 -35 -27 -30 -33
-92 -12 -132 17 -33 10 -49 -22 -50 -6 0 -23 -14 -37 -31 -30 -35 -36 -112
-11 -145 20 -26 19 -34 -6 -34 -12 0 -36 -15 -55 -34 -29 -29 -34 -41 -34 -79
0 -29 7 -53 20 -70 l20 -25 -35 -12 c-101 -33 -116 -168 -24 -216 57 -29 132
-10 159 41 19 35 17 98 -4 129 -20 32 -20 36 2 36 9 0 31 9 49 20 43 26 57 77
38 134 -19 55 -19 66 4 66 11 0 32 10 46 23 35 29 45 100 21 148 -9 17 -16 33
-16 35 0 1 13 5 30 9 64 14 100 125 56 174 -22 24 -22 23 21 40 38 15 73 66
73 105 0 15 -7 41 -16 57 -8 17 -14 32 -12 34 2 1 18 10 35 19 58 29 78 98 47
159 -9 17 -13 32 -8 34 81 27 116 106 79 177 -19 35 -19 36 1 36 9 0 32 16 50
36 38 40 45 89 19 134 -18 32 -18 40 0 40 8 0 28 12 45 28 38 34 49 87 26 132
-16 34 -14 50 8 50 7 0 25 14 42 31 25 26 29 38 28 81 0 44 -5 55 -32 80 -27
23 -41 28 -83 28 -42 0 -55 -5 -79 -28z"/>
<path d="M2065 7781 c-39 -16 -60 -51 -60 -98 0 -38 5 -49 34 -75 27 -24 40
-29 70 -26 20 3 44 8 54 12 14 7 17 3 17 -30 0 -86 73 -140 146 -109 l34 14 0
-39 c0 -53 16 -85 55 -105 31 -17 68 -17 108 0 15 6 17 1 17 -40 0 -65 39
-105 102 -105 24 0 52 6 63 14 19 13 20 12 16 -31 -4 -53 13 -89 51 -109 35
-18 72 -18 109 1 l29 16 -6 -41 c-12 -76 31 -130 103 -130 59 0 94 34 100 96
5 43 2 54 -22 82 -23 28 -33 32 -74 32 -25 0 -56 -6 -67 -14 -20 -14 -20 -13
-16 37 4 48 1 56 -26 85 -25 27 -37 32 -74 32 -24 0 -53 -7 -64 -15 -21 -14
-21 -13 -16 35 4 46 2 52 -32 86 -32 32 -41 35 -74 31 -20 -3 -46 -8 -58 -12
-18 -6 -20 -3 -16 27 8 71 -39 123 -110 122 -21 -1 -47 -9 -57 -18 -17 -16
-18 -14 -13 32 3 41 0 52 -23 80 -32 39 -81 50 -124 29 l-30 -15 1 42 c1 86
-70 138 -147 107z"/>
<path d="M2868 7763 c-98 -61 -41 -215 74 -200 48 6 73 28 88 73 32 97 -75
181 -162 127z"/>
<path d="M3310 7711 c-88 -46 -79 -170 15 -201 134 -44 209 152 78 206 -42 18
-52 18 -93 -5z"/>
<path d="M6744 7711 c-18 -11 -39 -30 -48 -42 -20 -30 -21 -98 -1 -126 15 -21
14 -23 -22 -42 -65 -33 -85 -92 -54 -154 l19 -38 -38 -19 c-36 -18 -70 -69
-70 -104 0 -8 8 -32 18 -52 10 -22 13 -39 7 -41 -42 -14 -75 -46 -86 -83 -12
-41 -12 -47 16 -112 5 -13 -1 -20 -28 -31 -19 -8 -42 -25 -51 -38 -21 -30 -21
-108 0 -137 18 -27 19 -26 -21 -39 -65 -21 -97 -122 -55 -176 25 -32 25 -37
-3 -37 -47 0 -97 -59 -97 -116 0 -15 9 -42 21 -60 20 -32 20 -34 2 -40 -49
-15 -65 -26 -83 -56 -25 -42 -25 -84 0 -126 11 -18 20 -34 20 -36 0 -2 -15 -7
-34 -10 -40 -8 -81 -51 -91 -97 -5 -23 -1 -43 19 -80 l25 -49 -30 0 c-22 0
-41 -10 -65 -34 -30 -30 -34 -40 -34 -84 0 -41 5 -55 28 -80 56 -60 151 -48
194 24 19 33 22 35 29 17 4 -11 20 -30 35 -42 l27 -21 -48 0 c-63 0 -101 -24
-121 -76 -32 -84 25 -164 115 -164 42 0 53 5 82 34 l33 34 32 -28 c18 -15 42
-31 54 -35 37 -12 88 4 121 37 28 28 32 30 41 15 14 -26 62 -47 106 -47 30 0
48 7 72 30 18 17 34 30 36 30 2 0 13 -9 24 -20 11 -11 40 -25 64 -32 l44 -12
-23 -18 c-29 -23 -31 -22 -62 2 -40 31 -104 27 -146 -9 l-33 -30 -26 26 c-19
19 -40 27 -75 30 -45 5 -53 2 -87 -27 l-37 -33 -27 25 c-34 32 -64 42 -108 34
-42 -8 -90 -58 -99 -102 -12 -66 46 -144 106 -144 34 0 37 -10 9 -35 -27 -24
-43 -80 -36 -120 8 -42 55 -91 96 -100 l30 -7 -34 -32 c-62 -57 -61 -131 2
-188 l37 -33 0 -140 c0 -113 5 -159 24 -235 29 -119 114 -297 180 -379 52 -65
149 -171 156 -171 3 0 25 -16 50 -35 111 -85 266 -153 411 -181 49 -9 94 -23
101 -32 9 -11 16 -12 25 -5 7 6 55 13 106 15 76 5 92 3 92 -9 0 -8 6 -13 13
-10 6 2 11 9 10 15 -3 12 4 14 87 32 123 27 255 86 365 165 75 53 193 172 242
245 21 30 40 57 43 60 3 3 16 28 29 55 91 190 131 390 112 565 -5 54 -4 81 5
95 20 33 26 83 14 120 -10 32 -51 76 -82 88 -10 4 -8 11 7 24 39 34 55 67 55
111 0 38 -6 50 -39 83 -21 22 -48 39 -60 39 -28 0 -27 7 8 36 35 30 55 83 46
124 -10 43 -50 87 -88 95 -48 11 -48 12 -11 49 30 30 34 41 34 84 0 76 -56
131 -137 133 -26 0 -26 1 -7 9 39 16 64 59 64 112 0 82 -48 127 -137 129 -33
0 -35 1 -16 9 64 26 83 145 31 197 -45 45 -140 44 -183 -3 l-23 -25 -25 25
c-28 27 -83 42 -123 32 -15 -4 -39 -19 -54 -35 l-28 -27 -31 28 c-26 23 -41
28 -82 28 -43 0 -55 -5 -81 -30 -16 -16 -31 -30 -33 -30 -2 0 -16 11 -30 24
-53 49 -126 45 -173 -8 l-29 -33 -36 34 c-28 25 -46 33 -73 33 -34 0 -104 -33
-104 -48 0 -4 -4 -13 -9 -21 -7 -12 -15 -8 -41 17 l-32 32 30 0 c49 0 91 20
112 55 l21 34 34 -37 c30 -33 38 -37 85 -37 47 0 55 3 87 39 34 37 37 38 49
21 51 -69 146 -74 194 -11 l25 34 39 -34 c56 -48 110 -48 162 1 l37 35 34 -30
c73 -64 181 -30 198 64 16 84 -35 146 -121 146 -45 0 -57 -4 -82 -30 -33 -33
-47 -37 -55 -17 -3 8 -22 22 -42 31 -51 25 -100 14 -141 -30 l-31 -35 -27 31
c-18 23 -38 33 -65 37 -45 6 -106 -19 -123 -51 -16 -31 -16 -31 -43 -6 -33 31
-32 40 5 40 44 0 87 25 106 61 l15 31 32 -37 c56 -64 155 -56 192 14 l15 29
40 -40 c38 -39 42 -40 91 -36 70 7 101 38 107 110 4 47 1 58 -23 86 -37 44
-90 59 -138 38 -21 -8 -45 -29 -55 -46 -9 -16 -20 -30 -23 -30 -3 0 -15 14
-27 30 -22 29 -22 30 -3 30 38 0 97 31 114 59 9 16 17 48 17 70 0 33 -7 49
-34 79 -31 33 -40 37 -84 37 -55 0 -95 -26 -114 -75 l-9 -24 -24 29 c-13 17
-24 33 -25 36 0 4 18 9 39 13 57 9 91 53 91 117 0 40 -5 55 -29 81 -27 30 -35
33 -86 33 -51 0 -59 -3 -86 -33 -37 -41 -41 -114 -9 -155 11 -14 20 -27 20
-30 0 -2 -17 -7 -38 -11 -42 -6 -75 -35 -92 -80 l-10 -28 -25 36 c-14 20 -25
39 -25 41 0 3 14 5 31 5 22 0 41 10 65 34 28 28 34 42 34 76 0 25 -8 56 -20
75 l-20 32 31 7 c16 3 44 19 60 35 25 25 29 37 29 84 0 50 -3 58 -35 86 -76
66 -181 27 -192 -71 -4 -37 -1 -54 16 -81 l22 -35 -30 -7 c-72 -16 -111 -81
-91 -153 5 -22 17 -43 25 -46 26 -9 16 -26 -15 -26 -40 0 -89 -45 -100 -93 -6
-30 -4 -46 14 -81 l22 -43 -48 -17 c-40 -14 -52 -24 -73 -64 -13 -26 -24 -41
-25 -34 0 8 -9 27 -21 43 l-20 29 23 0 c26 0 71 27 93 56 20 27 18 93 -4 130
l-19 31 40 14 c21 7 48 25 59 41 25 34 27 99 5 133 -22 34 -20 45 10 45 30 0
80 51 89 91 5 22 -9 69 -32 110 -2 3 14 13 36 22 86 38 102 139 31 202 -34 30
-120 28 -154 -4 -43 -40 -51 -82 -27 -137 26 -57 26 -54 0 -54 -28 0 -89 -62
-90 -91 -2 -43 3 -64 23 -96 l20 -33 -27 0 c-17 0 -39 -12 -61 -34 -28 -28
-34 -41 -34 -78 0 -25 8 -56 19 -75 l20 -31 -34 -6 c-76 -15 -112 -95 -76
-170 27 -54 27 -56 -8 -56 -38 0 -77 -38 -92 -89 -11 -37 -10 -46 6 -74 10
-18 25 -38 33 -44 14 -11 12 -13 -14 -13 -42 0 -88 -32 -108 -75 l-18 -37 -23
34 -23 33 32 10 c17 6 38 15 47 20 50 33 64 115 28 166 -19 28 -20 29 -2 35
55 18 71 28 86 53 21 36 22 101 2 127 -21 27 -18 44 6 44 12 0 36 15 55 34 28
28 34 42 34 75 0 23 -8 53 -17 67 -14 22 -14 27 -2 35 8 5 19 9 25 9 21 0 65
58 71 93 4 26 0 47 -16 77 -18 34 -18 40 -5 40 26 0 71 31 83 57 15 34 14 89
-4 122 -14 28 -13 29 14 41 125 51 94 230 -39 230 -43 0 -87 -27 -105 -66 -20
-42 -19 -62 3 -106 l19 -36 -37 -17 c-20 -9 -44 -29 -53 -45 -21 -34 -21 -98
-2 -124 21 -28 19 -33 -20 -46 -40 -13 -75 -63 -75 -106 0 -16 9 -44 20 -62
24 -39 24 -42 5 -42 -30 0 -63 -24 -84 -60 -26 -47 -26 -66 -1 -108 26 -42 25
-52 -2 -52 -30 -1 -62 -27 -82 -67 -21 -41 -20 -56 4 -103 24 -47 24 -50 5
-50 -29 0 -75 -30 -90 -60 -20 -40 -19 -79 5 -118 11 -18 20 -34 20 -36 0 -1
-18 -8 -40 -15 -28 -8 -47 -23 -61 -44 -34 -55 -35 -77 -6 -129 l27 -48 -31 0
c-34 0 -99 -55 -99 -84 0 -23 -11 -20 -36 11 l-22 28 41 15 c78 29 108 110 66
179 -11 18 -19 34 -17 35 2 2 19 7 38 12 65 18 99 104 65 164 -21 37 -18 45
17 55 17 6 41 23 52 38 27 36 28 107 4 134 -24 26 -23 30 12 38 68 15 101 105
65 175 -15 29 -15 30 17 43 67 29 95 96 64 158 -20 40 -20 49 -1 49 8 0 30 16
50 35 29 30 35 43 35 78 0 23 -7 51 -15 61 -18 24 -19 36 -3 36 25 0 78 52 87
87 8 30 7 45 -9 80 -15 34 -16 43 -5 43 7 0 30 15 49 34 30 28 36 40 36 74 0
57 -16 86 -60 111 -46 26 -66 26 -106 2z m636 -1176 c0 -3 -12 -5 -26 -5 -37
0 -80 -28 -100 -66 l-18 -33 -22 32 -22 32 44 13 c48 14 84 52 84 90 0 23 2
22 30 -16 17 -23 30 -44 30 -47z m241 27 c11 -14 6 -17 -54 -27 -29 -5 -43
-15 -63 -45 l-26 -39 -24 28 c-31 38 -30 41 11 41 41 0 105 50 105 84 1 20 1
20 20 -4 11 -14 25 -31 31 -38z m-337 -264 c-3 -5 -21 -8 -40 -8 -35 0 -83
-35 -96 -70 -5 -12 -12 -8 -31 15 l-25 30 33 6 c46 8 86 36 99 71 l11 29 27
-33 c14 -18 24 -36 22 -40z m-266 22 c29 -38 28 -40 -12 -40 -40 0 -79 -28
-96 -69 l-12 -31 -24 36 c-26 37 -28 45 -16 43 36 -6 67 5 93 33 16 18 29 38
29 45 0 21 15 15 38 -17z m-107 -272 c-44 -7 -87 -38 -100 -71 -6 -16 -10 -14
-35 12 l-29 30 29 6 c56 12 92 34 105 64 l14 31 30 -32 30 -33 -44 -7z m-232
26 c12 -19 21 -37 21 -40 0 -2 -15 -4 -33 -4 -39 0 -72 -21 -97 -63 l-19 -30
-12 26 c-7 15 -16 27 -21 27 -5 0 -6 5 -3 10 3 6 17 10 29 10 29 0 72 33 91
71 9 16 17 29 19 29 2 0 13 -16 25 -36z m651 -237 c14 -9 43 -17 67 -17 35 0
48 6 78 36 35 35 37 36 50 16 36 -51 136 -54 186 -6 l28 27 26 -25 c28 -28 74
-41 111 -32 29 7 33 -12 5 -21 -11 -3 -22 -12 -25 -20 -8 -21 -26 -19 -54 8
-18 17 -35 22 -77 22 -46 0 -58 -4 -84 -29 l-31 -30 -31 30 c-25 24 -39 29
-79 29 -39 0 -54 -5 -77 -27 -32 -31 -48 -35 -60 -14 -14 23 -50 36 -98 36
-40 0 -52 -5 -76 -31 l-30 -32 -30 29 c-26 25 -38 29 -85 29 -50 0 -58 -3 -86
-34 l-30 -33 -32 31 c-27 26 -40 31 -81 31 -43 0 -52 -4 -85 -39 l-37 -39 -27
30 c-14 17 -26 31 -26 32 0 0 21 1 47 2 42 1 51 6 83 41 l35 40 19 -24 c46
-62 135 -65 186 -6 l30 34 30 -30 c55 -55 132 -53 178 5 26 33 28 34 42 16 8
-9 26 -25 40 -35z m672 28 c20 -17 42 -25 69 -25 45 0 48 -8 14 -40 l-24 -23
-31 27 c-24 19 -43 26 -76 26 -24 0 -44 3 -44 6 0 9 43 52 54 53 4 1 21 -10
38 -24z m-1653 -49 c21 -13 11 -23 -29 -30 -40 -6 -60 -20 -93 -66 -12 -17
-20 -21 -23 -12 -3 7 -12 19 -20 26 -20 21 -18 23 25 30 43 7 86 48 97 93 l7
25 12 -30 c7 -16 18 -33 24 -36z m228 -16 c-48 -7 -94 -33 -102 -61 -9 -26
-20 -24 -45 9 l-22 27 39 6 c48 7 74 23 96 61 l17 29 29 -33 30 -33 -42 -5z
m1533 -195 c16 -8 40 -15 55 -15 32 0 32 -7 -1 -37 l-26 -24 -24 22 c-13 12
-47 27 -76 34 -29 8 -46 14 -37 14 8 1 26 12 39 26 20 22 25 23 32 10 5 -8 22
-22 38 -30z m-690 11 c42 -46 116 -45 171 2 l31 26 19 -25 c16 -21 26 -24 84
-24 57 0 69 3 85 23 22 27 28 27 56 1 14 -13 41 -23 68 -26 25 -3 46 -10 46
-14 0 -5 -4 -9 -10 -9 -5 0 -18 -10 -29 -21 l-20 -22 -33 28 c-28 24 -38 27
-85 23 -38 -3 -60 -11 -78 -28 l-25 -23 -24 22 c-26 24 -81 37 -120 27 -14 -3
-36 -18 -50 -32 l-24 -26 -21 21 c-49 49 -124 50 -173 4 l-27 -26 -31 27 c-44
36 -116 37 -158 1 -17 -14 -33 -25 -37 -25 -4 0 -20 11 -37 25 -44 37 -106 35
-153 -6 l-36 -32 -28 27 c-37 36 -88 43 -136 21 -20 -10 -39 -24 -42 -32 -7
-19 -20 -16 -57 12 -24 18 -45 25 -79 25 -39 0 -51 -5 -80 -34 l-33 -33 -27
23 c-15 13 -27 26 -27 29 0 3 21 5 46 5 36 0 51 6 73 28 15 15 30 34 33 42 3
11 14 5 40 -23 32 -34 40 -37 88 -37 47 0 56 4 87 36 l34 36 19 -25 c25 -31
81 -51 122 -43 17 3 44 20 60 37 30 31 30 31 51 11 34 -31 62 -42 104 -42 31
0 46 7 68 30 28 30 55 39 55 20 0 -16 57 -40 95 -40 41 0 90 22 98 45 9 21 20
19 47 -9z m-380 -256 c-24 -15 -31 -11 -18 10 9 13 16 16 23 9 7 -7 5 -13 -5
-19z m912 5 c19 -16 42 -25 64 -25 40 0 44 -11 9 -30 -21 -11 -30 -11 -62 4
-63 29 -78 43 -63 61 16 20 17 19 52 -10z m220 0 c17 -14 42 -25 59 -25 37 0
36 -10 -3 -37 -32 -22 -32 -22 -53 -4 -11 11 -33 23 -50 27 -46 11 -47 13 -17
39 15 14 29 25 31 25 2 0 16 -11 33 -25z m-1645 -284 c12 -6 39 -11 60 -12 21
0 31 -3 23 -6 -8 -3 -28 -15 -43 -26 l-28 -19 -24 22 c-13 12 -41 24 -64 27
-23 3 -41 8 -41 10 0 2 12 15 28 28 26 23 28 23 47 6 11 -10 30 -24 42 -30z
m153 10 c-6 -12 -20 -21 -30 -21 -27 0 -25 7 8 35 29 25 40 19 22 -14z m1602
-12 c16 -9 18 -13 7 -20 -14 -8 -39 6 -39 22 0 12 7 11 32 -2z m-1772 -259 c0
-5 -7 -10 -16 -10 -8 0 -12 5 -9 10 3 6 10 10 16 10 5 0 9 -4 9 -10z"/>
<path d="M1855 7621 c-64 -27 -82 -118 -34 -167 28 -27 83 -36 127 -21 20 8
22 6 22 -33 0 -22 7 -52 16 -65 22 -33 76 -50 116 -36 43 15 45 15 40 -18 -5
-38 22 -87 59 -107 30 -15 56 -15 105 1 19 6 20 3 16 -24 -6 -42 13 -84 47
-104 31 -18 86 -23 95 -8 3 5 14 11 23 13 16 4 18 -1 15 -44 -4 -43 -1 -51 28
-78 36 -34 91 -40 126 -16 20 14 20 13 20 -34 -1 -41 4 -54 28 -79 25 -26 37
-31 77 -31 26 0 51 5 54 10 14 23 22 7 18 -32 -4 -37 0 -48 25 -78 25 -30 35
-34 73 -34 24 0 54 4 66 8 20 8 22 6 17 -25 -8 -47 10 -85 48 -109 41 -25 74
-25 115 -1 l32 20 -11 -30 c-33 -95 63 -180 153 -135 41 20 40 21 27 -14 -37
-108 105 -187 188 -105 19 19 24 34 24 72 -1 95 -87 142 -168 93 -32 -20 -33
-20 -22 -1 36 68 -20 161 -97 161 -21 0 -49 -7 -62 -17 l-24 -16 7 36 c9 48
-14 101 -53 121 -37 20 -62 20 -104 3 l-32 -14 4 49 c3 56 -13 82 -66 104 -27
12 -38 11 -73 -1 l-42 -15 7 29 c9 41 -17 96 -54 115 -38 20 -64 20 -102 0
l-30 -15 6 34 c8 41 -13 89 -50 113 -25 16 -80 16 -119 -1 -15 -7 -17 -5 -11
14 19 61 -33 131 -98 131 -21 0 -47 -5 -58 -10 -17 -10 -19 -7 -19 35 0 82
-71 127 -152 96 -22 -8 -23 -6 -23 36 0 38 -5 49 -33 74 -34 31 -71 37 -116
19 -25 -9 -26 -8 -26 25 0 86 -70 136 -145 106z"/>
<path d="M3042 7605 c-40 -33 -51 -84 -29 -131 33 -68 122 -82 179 -28 23 23
28 36 28 73 0 67 -31 102 -96 108 -43 5 -54 2 -82 -22z"/>
<path d="M3523 7563 c-30 -6 -71 -46 -79 -77 -10 -39 4 -90 30 -115 49 -46
143 -35 171 20 20 37 19 99 -1 128 -15 21 -73 53 -91 50 -4 -1 -18 -4 -30 -6z"/>
<path d="M3234 7462 c-56 -47 -60 -118 -10 -168 39 -39 89 -45 136 -17 65 38
68 135 6 185 -28 23 -104 23 -132 0z"/>
<path d="M1625 7426 c-34 -34 -41 -71 -22 -112 27 -56 83 -74 151 -48 16 6 18
4 13 -16 -4 -14 1 -41 13 -66 15 -36 25 -45 58 -54 27 -7 48 -7 67 0 14 5 28
10 29 10 2 0 6 -20 9 -45 8 -78 68 -116 136 -89 18 8 34 14 36 14 1 0 2 -21 2
-47 0 -40 4 -50 33 -76 26 -23 39 -28 69 -25 20 3 44 8 54 12 15 7 17 2 17
-34 0 -52 12 -76 50 -95 37 -19 74 -19 104 0 l24 16 -5 -46 c-5 -42 -3 -48 31
-80 41 -39 86 -46 123 -20 21 15 21 14 20 -32 0 -41 4 -50 37 -81 38 -34 69
-39 119 -17 14 6 17 2 17 -26 0 -40 30 -93 61 -109 21 -12 69 -10 102 5 14 6
17 2 17 -28 0 -89 72 -139 154 -107 26 9 26 9 26 -36 0 -58 22 -91 71 -104 75
-20 139 29 139 106 0 83 -77 125 -162 89 -15 -6 -18 -2 -18 30 0 71 -41 114
-107 115 -23 0 -45 -4 -48 -10 -14 -22 -25 -8 -25 33 0 51 -21 84 -64 102 -31
13 -82 10 -92 -6 -12 -20 -19 -7 -19 35 0 61 -41 106 -98 106 -21 0 -47 -5
-58 -10 -17 -10 -19 -7 -19 25 0 43 -23 90 -49 105 -25 13 -87 13 -112 -1 -19
-10 -20 -8 -14 23 5 25 1 41 -17 68 -30 44 -66 57 -118 43 l-40 -10 0 38 c0
56 -44 103 -96 103 -22 1 -50 -3 -63 -8 -21 -7 -23 -6 -18 13 8 34 -12 90 -39
107 -18 13 -38 15 -79 11 l-55 -6 0 40 c0 32 -7 47 -30 71 -26 26 -36 29 -73
26 -23 -3 -49 -8 -57 -12 -13 -5 -15 0 -12 32 3 30 -2 45 -23 70 -23 28 -33
32 -76 32 -39 0 -55 -5 -74 -24z"/>
<path d="M3025 7372 c-51 -17 -75 -50 -75 -102 0 -117 152 -153 206 -49 7 15
14 35 14 44 0 26 -31 85 -49 94 -25 14 -74 20 -96 13z"/>
<path d="M3444 7316 c-70 -31 -87 -120 -35 -178 26 -29 35 -33 81 -33 46 0 55
4 81 33 53 59 35 148 -37 178 -41 17 -50 17 -90 0z"/>
<path d="M1457 7254 c-83 -45 -48 -184 48 -184 19 0 47 7 61 17 25 16 25 16
18 -11 -23 -94 58 -160 149 -121 15 6 17 1 17 -35 0 -57 42 -100 97 -100 21 0
48 6 59 14 20 14 20 13 20 -36 -1 -43 3 -53 27 -74 39 -33 73 -40 111 -21 l33
15 -1 -45 c-1 -38 4 -49 32 -74 37 -33 84 -38 121 -12 l24 16 -6 -32 c-18 -89
81 -165 151 -115 22 15 22 15 22 -30 0 -65 39 -109 98 -109 23 0 48 6 57 13
16 13 18 10 15 -32 -2 -32 15 -67 44 -90 24 -20 96 -24 114 -6 7 7 12 10 13 8
0 -3 1 -25 3 -49 2 -35 9 -50 36 -74 30 -27 38 -29 87 -24 l53 6 0 -44 c0 -36
5 -48 31 -69 44 -37 101 -36 139 3 39 39 46 73 25 120 -25 56 -71 76 -137 58
-26 -7 -28 -5 -28 22 0 86 -78 133 -162 96 -16 -6 -18 -1 -18 39 0 37 -5 52
-25 70 -35 33 -68 39 -110 22 l-35 -15 0 40 c0 51 -13 75 -50 94 -37 19 -74
19 -104 0 l-24 -16 5 45 c5 40 2 48 -24 75 -40 39 -74 47 -114 27 -18 -9 -33
-16 -33 -16 -1 0 -1 21 -1 46 0 39 -5 50 -33 75 -37 33 -84 38 -120 13 -22
-15 -22 -14 -22 25 0 55 -17 87 -55 106 -41 19 -49 19 -87 -1 l-31 -16 6 29
c7 35 -14 85 -44 107 -26 18 -94 22 -104 6 -13 -22 -25 -8 -25 29 0 78 -76
130 -141 97 -41 -20 -41 -20 -33 8 9 38 -13 90 -45 109 -35 21 -67 21 -104 1z"/>
<path d="M3173 7204 c-88 -69 -18 -210 93 -189 48 9 84 56 84 110 0 92 -102
138 -177 79z"/>
<path d="M3358 7051 c-29 -26 -33 -35 -33 -81 0 -47 3 -55 35 -81 71 -60 167
-20 177 73 5 44 3 50 -30 83 -47 47 -101 49 -149 6z"/>
<path d="M1271 7044 c-26 -22 -31 -33 -31 -70 0 -62 32 -94 92 -94 24 0 53 7
65 15 21 15 21 14 13 -15 -26 -91 62 -160 148 -116 l27 14 -3 -49 c-3 -41 0
-52 22 -74 29 -29 97 -35 131 -11 19 13 20 12 17 -38 -3 -44 0 -54 22 -75 27
-26 69 -32 119 -18 26 7 27 6 27 -35 1 -46 12 -68 47 -86 30 -16 68 -15 103 3
l29 15 -8 -28 c-14 -46 8 -94 52 -116 36 -17 42 -17 77 -3 l38 15 -1 -46 c0
-39 4 -49 33 -75 26 -23 39 -28 69 -25 20 3 45 8 55 13 17 7 18 5 12 -18 -8
-34 15 -92 44 -107 28 -15 81 -15 108 -1 20 10 21 9 19 -28 -3 -85 72 -132
156 -96 15 6 17 1 17 -37 0 -65 33 -98 95 -98 92 0 137 90 80 158 -32 38 -72
48 -118 28 l-35 -14 5 33 c13 81 -73 140 -149 101 -26 -14 -26 -14 -21 18 6
39 -17 90 -48 107 -28 14 -81 14 -108 -1 -21 -11 -22 -10 -16 22 14 75 -74
140 -144 105 l-31 -15 0 47 c0 38 -6 54 -25 76 -22 23 -32 26 -68 23 -23 -3
-50 -8 -59 -12 -14 -7 -17 -2 -16 32 0 52 -16 81 -57 98 -34 14 -90 10 -101
-7 -12 -21 -19 -6 -16 36 4 39 0 49 -26 75 -34 34 -75 39 -120 16 l-27 -14 3
47 c3 40 0 51 -24 75 -25 24 -35 27 -74 24 -25 -3 -52 -8 -60 -11 -13 -6 -15
0 -12 35 7 81 -67 130 -139 94 -18 -9 -33 -16 -33 -16 -1 0 0 20 2 45 4 39 0
49 -26 75 -40 39 -88 41 -131 4z"/>
<path d="M3140 6961 c-57 -30 -76 -91 -46 -150 17 -33 54 -51 102 -51 49 0
104 54 104 100 0 44 -26 85 -67 104 -43 20 -51 20 -93 -3z"/>
<path d="M3574 6916 c-91 -41 -84 -175 11 -206 41 -13 92 -1 120 30 21 23 30
87 16 122 -20 52 -92 79 -147 54z"/>
<path d="M1107 6835 c-37 -35 -39 -104 -2 -140 33 -34 93 -34 132 -1 23 20 28
32 28 71 0 39 -5 51 -28 71 -39 33 -93 32 -130 -1z"/>
<path d="M3323 6820 c-28 -11 -63 -66 -63 -98 0 -57 54 -112 111 -112 40 0 95
33 103 63 9 34 7 86 -4 108 -22 40 -95 60 -147 39z"/>
<path d="M1295 6725 c-39 -21 -45 -32 -45 -86 0 -35 5 -51 24 -68 48 -45 136
-25 156 35 28 85 -57 160 -135 119z"/>
<path d="M3498 6662 c-55 -33 -61 -127 -12 -173 20 -19 37 -24 76 -24 43 0 53
4 79 33 43 47 41 102 -5 148 -27 27 -42 34 -72 34 -22 0 -51 -8 -66 -18z"/>
<path d="M959 6611 c-21 -22 -29 -39 -29 -66 0 -51 44 -95 95 -95 51 0 95 44
95 95 0 51 -44 95 -95 95 -27 0 -44 -8 -66 -29z"/>
<path d="M1443 6588 c-66 -74 -7 -182 90 -164 48 9 72 39 72 91 0 62 -33 95
-95 95 -36 0 -51 -5 -67 -22z"/>
<path d="M3704 6521 c-58 -25 -84 -118 -48 -170 26 -36 77 -54 123 -41 57 15
76 42 76 106 0 44 -4 58 -26 80 -28 28 -89 40 -125 25z"/>
<path d="M1129 6491 c-50 -51 -34 -134 31 -161 38 -16 70 -7 103 26 39 39 38
96 -4 135 -42 40 -90 40 -130 0z"/>
<path d="M1614 6467 c-22 -19 -27 -33 -28 -71 -1 -41 3 -51 27 -72 55 -47 147
-21 162 45 8 36 -16 95 -43 110 -35 19 -89 13 -118 -12z"/>
<path d="M830 6390 c-66 -66 -29 -165 62 -165 32 0 45 6 64 28 33 39 33 99 -1
132 -31 32 -96 34 -125 5z"/>
<path d="M1324 6384 c-57 -28 -72 -106 -30 -149 32 -32 69 -40 107 -25 64 27
79 98 32 149 -35 38 -69 46 -109 25z"/>
<path d="M1797 6354 c-29 -16 -47 -49 -47 -89 0 -31 43 -81 76 -89 39 -10 92
11 109 44 49 94 -45 185 -138 134z"/>
<path d="M995 6254 c-35 -38 -34 -87 4 -125 89 -89 209 40 124 133 -26 29 -98
24 -128 -8z"/>
<path d="M1475 6246 c-25 -20 -30 -31 -30 -70 0 -62 29 -91 91 -91 38 0 50 5
70 28 35 40 32 87 -7 126 -38 39 -82 41 -124 7z"/>
<path d="M1957 6220 c-84 -66 -3 -196 100 -163 35 11 68 73 59 109 -18 68
-104 97 -159 54z"/>
<path d="M743 6168 c-64 -17 -82 -100 -34 -149 49 -49 124 -33 151 31 10 25 9
35 -6 67 -23 45 -64 64 -111 51z"/>
<path d="M1189 6153 c-21 -5 -49 -55 -49 -87 0 -14 13 -40 29 -58 22 -25 36
-32 66 -32 30 0 44 7 66 32 39 43 38 84 0 123 -29 28 -64 35 -112 22z"/>
<path d="M1653 6130 c-38 -23 -52 -74 -33 -121 16 -37 37 -49 90 -49 97 0 127
130 40 175 -38 20 -58 19 -97 -5z"/>
<path d="M2142 6110 c-30 -12 -57 -70 -48 -105 11 -44 50 -75 94 -75 77 0 122
72 87 139 -23 46 -78 63 -133 41z"/>
<path d="M904 6036 c-36 -16 -44 -32 -44 -86 0 -30 6 -44 31 -64 17 -14 39
-26 49 -26 52 0 100 49 100 102 0 27 -26 61 -57 77 -28 14 -41 13 -79 -3z"/>
<path d="M1347 6018 c-27 -21 -39 -66 -27 -104 23 -68 102 -86 151 -33 59 63
22 149 -64 149 -24 0 -51 -6 -60 -12z"/>
<path d="M1817 6000 c-52 -41 -44 -126 14 -155 95 -50 183 62 113 144 -32 38
-87 43 -127 11z"/>
<path d="M2325 5989 c-34 -9 -65 -54 -65 -92 0 -14 11 -39 25 -55 46 -55 123
-51 158 7 48 82 -24 168 -118 140z"/>
<path d="M609 5901 c-20 -20 -29 -39 -29 -61 0 -44 47 -90 93 -90 82 0 119
101 56 154 -41 35 -83 34 -120 -3z"/>
<path d="M1068 5905 c-50 -28 -49 -118 1 -148 41 -24 75 -21 110 9 25 20 31
34 31 63 0 75 -72 114 -142 76z"/>
<path d="M1521 5893 c-30 -25 -42 -73 -26 -109 22 -53 68 -72 121 -49 91 38
64 175 -34 175 -23 0 -49 -7 -61 -17z"/>
<path d="M1985 5877 c-18 -15 -28 -36 -32 -64 -5 -37 -2 -45 25 -73 63 -63
162 -26 162 60 0 84 -93 131 -155 77z"/>
<path d="M2467 5850 c-49 -39 -41 -131 12 -160 28 -15 83 -12 108 5 20 14 20
13 16 -29 -5 -37 -1 -48 25 -77 25 -28 37 -34 72 -34 35 0 47 6 71 33 39 44
39 89 0 131 -23 24 -37 31 -68 31 -21 0 -48 -7 -61 -15 -22 -16 -22 -16 -16
27 5 39 3 47 -24 76 -37 39 -94 44 -135 12z"/>
<path d="M785 5775 c-28 -27 -34 -88 -12 -116 21 -27 57 -41 92 -35 45 9 70
39 70 88 0 78 -96 118 -150 63z"/>
<path d="M1275 5792 c-39 -8 -65 -43 -65 -88 0 -86 91 -121 151 -58 59 62 0
162 -86 146z"/>
<path d="M1681 5754 c-31 -39 -28 -89 8 -125 37 -37 79 -38 120 -3 40 34 44
98 8 132 -35 33 -109 31 -136 -4z"/>
<path d="M2146 5739 c-66 -78 13 -185 107 -145 42 17 57 41 57 91 0 82 -110
118 -164 54z"/>
<path d="M526 5655 c-20 -18 -26 -34 -26 -63 0 -59 27 -87 83 -87 51 0 82 21
90 62 17 88 -83 148 -147 88z"/>
<path d="M978 5662 c-57 -35 -55 -139 4 -157 62 -20 111 -1 128 51 15 45 1 83
-39 107 -36 21 -59 21 -93 -1z"/>
<path d="M1409 5641 c-83 -84 38 -207 125 -126 41 38 33 115 -15 140 -43 23
-77 18 -110 -14z"/>
<path d="M1865 5637 c-62 -53 -25 -157 55 -157 57 0 90 31 90 85 0 56 -23 85
-76 92 -33 4 -45 1 -69 -20z"/>
<path d="M2330 5623 c-25 -23 -32 -36 -32 -67 0 -85 105 -125 159 -61 21 23
24 36 20 68 -7 49 -32 76 -79 83 -29 5 -41 1 -68 -23z"/>
<path d="M705 5525 c-48 -47 -25 -135 40 -151 39 -10 85 15 101 53 37 88 -74
166 -141 98z"/>
<path d="M1165 5539 c-11 -6 -26 -19 -32 -27 -14 -17 -17 -90 -5 -108 21 -31
86 -43 124 -23 28 15 50 72 39 101 -19 50 -85 80 -126 57z"/>
<path d="M1585 5515 c-18 -17 -25 -35 -25 -62 1 -79 76 -118 140 -73 34 24 45
61 30 105 -19 57 -101 75 -145 30z"/>
<path d="M2074 5532 c-35 -5 -68 -48 -68 -89 0 -44 49 -93 93 -93 66 0 109 77
77 139 -9 17 -18 31 -19 31 -1 0 -16 4 -32 8 -17 4 -40 6 -51 4z"/>
<path d="M2489 5494 c-18 -19 -23 -36 -23 -67 2 -54 38 -87 95 -87 55 0 89 34
89 90 0 57 -34 90 -93 90 -34 0 -49 -6 -68 -26z"/>
<path d="M455 5395 c-72 -71 17 -181 108 -134 31 17 37 28 37 72 0 51 -35 87
-85 87 -25 0 -44 -8 -60 -25z"/>
<path d="M891 5403 c-30 -25 -38 -85 -17 -118 24 -36 61 -48 102 -35 68 23 85
91 35 141 -35 34 -86 39 -120 12z"/>
<path d="M1339 5405 c-14 -8 -32 -29 -39 -46 -12 -28 -11 -36 6 -67 44 -81
164 -57 164 32 0 48 -8 65 -41 81 -35 18 -56 18 -90 0z"/>
<path d="M1760 5390 c-29 -29 -28 -100 3 -127 33 -31 62 -36 96 -18 38 19 64
66 55 100 -15 60 -111 88 -154 45z"/>
<path d="M2234 5400 c-56 -22 -69 -90 -28 -139 46 -56 137 -34 150 35 15 80
-49 134 -122 104z"/>
<path d="M642 5270 c-16 -15 -22 -32 -22 -63 0 -48 6 -59 37 -76 62 -32 133 7
133 74 0 74 -94 115 -148 65z"/>
<path d="M1069 5261 c-33 -33 -37 -69 -14 -105 49 -75 165 -42 165 46 0 83
-91 119 -151 59z"/>
<path d="M1522 5280 c-13 -5 -29 -26 -38 -45 -38 -91 76 -165 146 -95 25 25
27 90 3 119 -20 25 -77 35 -111 21z"/>
<path d="M1964 5280 c-30 -12 -54 -49 -54 -82 0 -43 49 -91 90 -90 50 1 84 31
88 77 4 49 -13 81 -51 95 -35 12 -44 12 -73 0z"/>
<path d="M2385 5255 c-19 -18 -25 -35 -25 -65 0 -102 131 -125 170 -31 15 36
8 68 -20 99 -30 32 -92 30 -125 -3z"/>
<path d="M406 5139 c-36 -28 -37 -89 -1 -124 53 -54 145 -16 145 60 0 74 -84
111 -144 64z"/>
<path d="M839 5150 c-23 -14 -42 -65 -35 -95 9 -37 45 -65 84 -65 45 0 67 13
82 49 25 61 -14 121 -77 121 -21 0 -45 -5 -54 -10z"/>
<path d="M1260 5140 c-45 -45 -35 -113 21 -144 33 -18 36 -18 71 -2 64 31 72
111 16 150 -31 22 -84 20 -108 -4z"/>
<path d="M1699 5147 c-47 -36 -51 -97 -10 -138 31 -31 59 -36 94 -18 62 32 74
94 28 140 -32 31 -82 39 -112 16z"/>
<path d="M2144 5150 c-58 -23 -70 -95 -25 -141 59 -58 151 -23 151 58 -1 71
-60 110 -126 83z"/>
<path d="M595 5005 c-52 -51 -16 -145 55 -145 42 0 67 15 85 51 44 84 -73 162
-140 94z"/>
<path d="M1016 4999 c-29 -34 -31 -45 -16 -85 15 -37 38 -53 81 -54 49 0 89
37 89 83 0 82 -101 119 -154 56z"/>
<path d="M1445 5005 c-18 -17 -25 -35 -25 -63 0 -52 32 -82 86 -82 53 0 88 35
88 87 0 73 -96 111 -149 58z"/>
<path d="M1887 5019 c-20 -12 -47 -60 -47 -85 0 -26 65 -84 93 -84 14 0 39 12
56 26 62 52 28 154 -51 154 -18 0 -41 -5 -51 -11z"/>
<path d="M2323 5020 c-51 -21 -58 -96 -14 -141 47 -46 103 -33 136 31 14 26
14 34 1 65 -20 48 -70 66 -123 45z"/>
<path d="M384 4892 c-20 -14 -44 -57 -44 -79 0 -25 47 -81 70 -84 64 -7 100
23 100 85 0 54 -30 86 -81 86 -19 0 -39 -4 -45 -8z"/>
<path d="M790 4875 c-72 -76 26 -189 114 -132 45 30 44 108 -3 144 -28 22 -85
16 -111 -12z"/>
<path d="M1215 4875 c-68 -67 11 -183 95 -140 35 18 50 43 50 85 0 71 -94 107
-145 55z"/>
<path d="M1649 4887 c-47 -36 -48 -114 -3 -144 90 -59 191 64 110 133 -30 26
-81 31 -107 11z"/>
<path d="M2066 4879 c-37 -29 -37 -95 -1 -129 37 -34 90 -33 121 4 72 83 -34
193 -120 125z"/>
<path d="M566 4739 c-52 -62 -17 -139 63 -139 52 0 96 47 87 94 -14 75 -103
101 -150 45z"/>
<path d="M989 4741 c-33 -33 -37 -65 -12 -101 23 -35 33 -40 73 -40 84 1 118
98 53 150 -37 29 -79 26 -114 -9z"/>
<path d="M1409 4741 c-16 -16 -29 -39 -29 -51 0 -33 31 -78 60 -89 58 -20 106
10 116 71 5 27 1 40 -21 66 -36 43 -84 44 -126 3z"/>
<path d="M1847 4759 c-26 -15 -48 -65 -41 -93 10 -40 50 -70 91 -69 83 2 112
108 44 160 -19 15 -70 16 -94 2z"/>
<path d="M2255 4744 c-52 -56 -15 -148 58 -148 52 0 87 35 87 86 0 81 -92 119
-145 62z"/>
<path d="M356 4619 c-36 -28 -37 -95 -2 -128 35 -33 93 -31 123 4 32 37 30 80
-6 116 -35 35 -77 38 -115 8z"/>
<path d="M778 4620 c-53 -41 -38 -129 25 -149 93 -31 160 81 86 143 -37 31
-77 33 -111 6z"/>
<path d="M1198 4620 c-53 -41 -38 -129 25 -149 93 -31 160 81 86 143 -37 31
-77 33 -111 6z"/>
<path d="M1618 4620 c-53 -41 -38 -129 25 -149 93 -31 160 81 86 143 -37 31
-77 33 -111 6z"/>
<path d="M2038 4620 c-32 -25 -41 -66 -21 -107 27 -59 109 -65 147 -11 57 81
-49 179 -126 118z"/>
<path d="M573 4491 c-57 -35 -52 -120 10 -149 79 -38 163 58 109 124 -19 24
-53 44 -74 44 -7 0 -27 -9 -45 -19z"/>
<path d="M993 4491 c-81 -50 -27 -177 67 -156 33 7 70 48 70 77 0 31 -27 73
-55 86 -35 16 -45 15 -82 -7z"/>
<path d="M1413 4490 c-83 -50 -28 -176 68 -155 76 17 89 124 18 160 -37 19
-48 19 -86 -5z"/>
<path d="M1838 4494 c-99 -53 -23 -201 79 -152 62 29 67 114 10 149 -38 23
-53 23 -89 3z"/>
<path d="M2258 4494 c-53 -28 -63 -85 -24 -131 45 -52 134 -31 151 34 9 36
-12 81 -46 98 -35 18 -47 18 -81 -1z"/>
<path d="M352 4350 c-16 -15 -22 -32 -22 -64 0 -50 21 -74 72 -82 49 -8 98 33
98 82 0 73 -95 113 -148 64z"/>
<path d="M772 4347 c-15 -16 -22 -36 -22 -64 0 -48 22 -71 73 -80 31 -5 40 -1
67 25 38 39 40 83 5 117 -33 34 -93 34 -123 2z"/>
<path d="M1192 4347 c-15 -16 -22 -36 -22 -64 0 -52 27 -78 82 -78 77 0 116
88 63 140 -33 34 -93 34 -123 2z"/>
<path d="M1616 4349 c-32 -25 -36 -84 -7 -120 27 -33 90 -33 125 0 79 75 -32
188 -118 120z"/>
<path d="M2032 4347 c-22 -23 -29 -68 -16 -102 4 -8 20 -23 36 -31 85 -44 170
64 103 131 -33 34 -93 34 -123 2z"/>
<path d="M565 4214 c-34 -37 -33 -78 4 -115 36 -36 79 -38 115 -6 40 34 43 77
11 115 -36 43 -94 45 -130 6z"/>
<path d="M1004 4232 c-20 -14 -44 -57 -44 -80 0 -35 52 -82 90 -82 39 0 90 47
90 83 0 14 -12 39 -26 56 -20 24 -34 31 -62 31 -21 0 -42 -4 -48 -8z"/>
<path d="M1417 4220 c-33 -26 -41 -63 -22 -100 30 -58 90 -67 136 -21 31 31
36 59 17 94 -26 50 -86 62 -131 27z"/>
<path d="M1835 4215 c-47 -46 -26 -127 36 -140 86 -19 146 79 84 140 -33 34
-87 34 -120 0z"/>
<path d="M2255 4215 c-41 -40 -27 -113 26 -135 58 -24 119 14 119 75 0 76 -92
114 -145 60z"/>
<path d="M369 4081 c-36 -36 -37 -70 -3 -110 32 -38 87 -43 122 -11 33 31 31
102 -4 129 -38 30 -80 27 -115 -8z"/>
<path d="M807 4099 c-11 -6 -25 -26 -33 -45 -13 -30 -12 -38 1 -64 18 -35 43
-50 82 -50 35 1 59 19 73 54 28 74 -55 144 -123 105z"/>
<path d="M1220 4092 c-13 -10 -23 -33 -27 -59 -5 -35 -2 -45 20 -67 71 -71
180 12 133 102 -24 46 -84 58 -126 24z"/>
<path d="M1644 4086 c-75 -63 10 -182 97 -136 10 6 26 24 34 40 14 26 14 34 1
64 -25 59 -84 74 -132 32z"/>
<path d="M2065 4085 c-52 -51 -16 -145 55 -145 42 0 90 47 90 88 0 72 -94 109
-145 57z"/>
<path d="M609 3967 c-28 -21 -41 -57 -35 -93 8 -41 39 -64 87 -64 72 0 107 93
54 145 -27 27 -79 33 -106 12z"/>
<path d="M1026 3959 c-35 -28 -37 -95 -3 -127 36 -34 89 -30 121 9 34 40 33
74 -3 110 -35 35 -77 38 -115 8z"/>
<path d="M1445 3954 c-74 -79 34 -190 119 -123 21 16 26 29 26 64 0 35 -5 48
-26 64 -38 30 -89 28 -119 -5z"/>
<path d="M1875 3954 c-72 -78 31 -189 115 -124 35 27 36 103 1 131 -34 28 -87
25 -116 -7z"/>
<path d="M2311 3963 c-12 -10 -24 -35 -28 -55 -5 -32 -1 -41 25 -68 19 -18 41
-30 57 -30 16 0 38 12 57 30 26 27 30 36 25 68 -8 45 -38 72 -82 72 -18 0 -42
-8 -54 -17z"/>
<path d="M405 3824 c-54 -59 -19 -144 59 -144 79 0 115 88 58 143 -38 36 -84
36 -117 1z"/>
<path d="M847 3839 c-26 -15 -49 -67 -41 -92 20 -66 99 -90 142 -44 33 35 30
99 -4 126 -29 23 -68 27 -97 10z"/>
<path d="M1265 3827 c-35 -30 -37 -88 -4 -123 50 -53 139 -14 139 61 0 74 -80
110 -135 62z"/>
<path d="M1690 3825 c-51 -55 -13 -145 61 -145 70 0 107 100 56 148 -33 31
-87 29 -117 -3z"/>
<path d="M2121 3824 c-27 -35 -27 -77 2 -108 31 -35 65 -41 103 -17 35 22 47
59 32 103 -19 55 -101 68 -137 22z"/>
<path d="M2413 3720 c-26 -11 -43 -40 -43 -75 0 -39 16 -62 51 -74 85 -29 143
83 71 139 -27 22 -45 24 -79 10z"/>
<path d="M646 3695 c-55 -51 -19 -145 58 -145 26 0 40 7 60 31 34 40 33 74 -3
110 -37 37 -78 38 -115 4z"/>
<path d="M1075 3695 c-34 -33 -34 -87 0 -120 34 -35 78 -33 117 5 25 26 29 36
24 62 -15 75 -92 103 -141 53z"/>
<path d="M1519 3707 c-63 -48 -40 -137 39 -153 26 -5 36 -1 62 24 16 17 30 40
30 52 0 29 -26 76 -45 84 -26 10 -69 6 -86 -7z"/>
<path d="M1941 3694 c-44 -56 -8 -134 62 -134 68 0 104 88 57 138 -31 33 -92
30 -119 -4z"/>
<path d="M6340 3645 c0 -8 5 -15 10 -15 6 0 10 7 10 15 0 8 -4 15 -10 15 -5 0
-10 -7 -10 -15z"/>
<path d="M6560 3640 c0 -5 5 -10 10 -10 6 0 10 5 10 10 0 6 -4 10 -10 10 -5 0
-10 -4 -10 -10z"/>
<path d="M1363 3592 c-30 -5 -63 -48 -63 -83 0 -96 145 -112 165 -18 13 57
-42 112 -102 101z"/>
<path d="M1795 3591 c-28 -12 -44 -33 -51 -68 -8 -40 35 -93 76 -93 45 0 80
35 80 80 0 62 -53 103 -105 81z"/>
<path d="M2219 3581 c-34 -27 -33 -95 1 -122 35 -26 76 -24 105 6 71 70 -29
179 -106 116z"/>
<path d="M456 3559 c-30 -35 -32 -58 -11 -98 39 -76 155 -43 155 44 0 79 -94
114 -144 54z"/>
<path d="M892 3567 c-30 -31 -30 -97 -1 -123 31 -28 96 -25 120 5 65 80 -49
193 -119 118z"/>
<path d="M2073 3472 c-41 -6 -66 -67 -47 -117 10 -24 60 -46 89 -39 31 8 65
49 65 79 0 49 -51 86 -107 77z"/>
<path d="M2506 3464 c-20 -20 -30 -57 -21 -84 18 -58 112 -65 140 -10 20 38
19 52 -6 84 -16 20 -29 26 -59 26 -22 0 -45 -7 -54 -16z"/>
<path d="M1595 3445 c-40 -39 -33 -105 14 -129 84 -44 160 68 87 130 -35 31
-70 30 -101 -1z"/>
<path d="M719 3447 c-43 -33 -47 -97 -9 -132 30 -28 90 -22 118 11 46 53 8
134 -62 134 -17 0 -38 -6 -47 -13z"/>
<path d="M1140 3433 c-17 -21 -20 -36 -16 -63 14 -91 140 -94 162 -4 7 26 -19
79 -41 88 -40 15 -83 6 -105 -21z"/>
<path d="M6221 3426 c-13 -16 -4 -46 13 -46 13 0 36 20 36 32 0 4 -9 12 -19
17 -14 8 -22 7 -30 -3z"/>
<path d="M6450 3400 c0 -13 7 -20 20 -20 13 0 20 7 20 20 0 13 -7 20 -20 20
-13 0 -20 -7 -20 -20z"/>
<path d="M6687 3404 c-8 -8 1 -24 14 -24 5 0 9 7 9 15 0 15 -12 20 -23 9z"/>
<path d="M6910 3390 c0 -5 7 -10 15 -10 8 0 15 5 15 10 0 6 -7 10 -15 10 -8 0
-15 -4 -15 -10z"/>
<path d="M7137 3394 c-8 -8 1 -24 14 -24 5 0 9 7 9 15 0 15 -12 20 -23 9z"/>
<path d="M7800 3380 c0 -5 5 -10 10 -10 6 0 10 5 10 10 0 6 -4 10 -10 10 -5 0
-10 -4 -10 -10z"/>
<path d="M8020 3380 c0 -5 5 -10 10 -10 6 0 10 5 10 10 0 6 -4 10 -10 10 -5 0
-10 -4 -10 -10z"/>
<path d="M8240 3380 c0 -5 5 -10 11 -10 5 0 7 5 4 10 -3 6 -8 10 -11 10 -2 0
-4 -4 -4 -10z"/>
<path d="M2335 3335 c-31 -30 -32 -73 -4 -104 48 -51 152 -2 135 63 -16 65
-86 87 -131 41z"/>
<path d="M1866 3319 c-14 -17 -26 -39 -26 -49 0 -32 48 -80 80 -80 42 0 83 39
83 78 0 77 -88 110 -137 51z"/>
<path d="M975 3316 c-39 -32 -40 -89 0 -123 34 -29 67 -29 101 1 40 34 39 90
-1 122 -38 30 -62 30 -100 0z"/>
<path d="M1419 3321 c-18 -14 -24 -29 -24 -61 0 -32 6 -47 24 -61 32 -27 77
-24 106 6 71 70 -29 179 -106 116z"/>
<path d="M531 3313 c-12 -10 -24 -35 -27 -55 -5 -30 -2 -41 19 -62 78 -77 197
28 122 108 -29 31 -82 35 -114 9z"/>
<path d="M2656 3239 c-19 -15 -26 -30 -26 -53 0 -42 26 -66 73 -66 41 0 67 27
67 71 0 30 -40 69 -70 69 -10 0 -29 -9 -44 -21z"/>
<path d="M2190 3228 c-49 -18 -64 -68 -34 -113 22 -34 95 -36 118 -3 45 64
-12 143 -84 116z"/>
<path d="M1692 3197 c-33 -35 -29 -79 9 -111 17 -14 39 -26 49 -26 10 0 32 12
49 26 23 19 31 34 31 58 0 68 -91 103 -138 53z"/>
<path d="M6080 3205 c-17 -20 -6 -45 20 -45 17 0 21 5 18 27 -4 31 -20 40 -38
18z"/>
<path d="M807 3199 c-9 -5 -24 -23 -32 -39 -14 -26 -14 -34 -1 -65 36 -86 169
-44 152 49 -10 52 -73 82 -119 55z"/>
<path d="M1235 3190 c-29 -32 -25 -88 9 -116 37 -33 71 -30 108 6 25 26 29 36
24 62 -10 49 -33 68 -81 68 -30 0 -47 -6 -60 -20z"/>
<path d="M6320 3184 c-11 -12 -10 -18 3 -32 16 -15 18 -15 34 0 13 14 14 20 3
32 -7 9 -16 16 -20 16 -4 0 -13 -7 -20 -16z"/>
<path d="M6561 3176 c-13 -16 -4 -46 14 -46 7 0 18 7 25 15 10 12 10 18 0 30
-15 19 -24 19 -39 1z"/>
<path d="M6796 3164 c-7 -19 1 -34 19 -34 8 0 16 4 19 9 9 14 -4 41 -19 41 -7
0 -16 -7 -19 -16z"/>
<path d="M7029 3154 c-10 -13 -10 -17 1 -24 17 -10 40 -2 40 15 0 20 -27 26
-41 9z"/>
<path d="M7262 3139 c2 -6 8 -10 13 -10 5 0 11 4 13 10 2 6 -4 11 -13 11 -9 0
-15 -5 -13 -11z"/>
<path d="M7491 3141 c-10 -7 -10 -10 -1 -16 6 -4 16 -3 22 3 13 13 -4 23 -21
13z"/>
<path d="M2486 3119 c-51 -40 -23 -129 42 -129 46 0 72 25 72 70 0 30 -6 43
-26 59 -15 12 -34 21 -44 21 -10 0 -29 -9 -44 -21z"/>
<path d="M7710 3130 c0 -5 7 -10 15 -10 8 0 15 5 15 10 0 6 -7 10 -15 10 -8 0
-15 -4 -15 -10z"/>
<path d="M7940 3130 c0 -5 5 -10 10 -10 6 0 10 5 10 10 0 6 -4 10 -10 10 -5 0
-10 -4 -10 -10z"/>
<path d="M8160 3130 c0 -5 5 -10 11 -10 5 0 7 5 4 10 -3 6 -8 10 -11 10 -2 0
-4 -4 -4 -10z"/>
<path d="M1995 3085 c-44 -43 -21 -108 42 -121 26 -5 37 -1 57 19 15 15 26 38
26 52 0 33 -42 75 -75 75 -14 0 -37 -11 -50 -25z"/>
<path d="M1540 3087 c-52 -26 -52 -105 1 -133 57 -29 109 2 109 66 0 30 -6 43
-26 59 -31 24 -49 26 -84 8z"/>
<path d="M1066 3065 c-53 -49 -19 -135 54 -135 52 0 84 39 76 90 -11 66 -81
91 -130 45z"/>
<path d="M615 3055 c-73 -72 28 -178 109 -114 20 16 26 29 26 59 0 72 -84 106
-135 55z"/>
<path d="M2822 3027 c-41 -44 -16 -107 42 -107 41 0 66 26 66 68 0 57 -68 82
-108 39z"/>
<path d="M5900 3005 c-6 -8 -9 -23 -5 -35 10 -31 59 -24 63 9 6 37 -34 55 -58
26z"/>
<path d="M2310 2990 c-26 -26 -26 -81 -2 -103 25 -23 85 -22 105 1 23 25 22
85 -1 105 -25 23 -78 21 -102 -3z"/>
<path d="M1850 2983 c-49 -18 -65 -71 -34 -118 22 -34 95 -36 118 -3 44 63
-14 147 -84 121z"/>
<path d="M6161 2976 c-16 -20 -3 -46 24 -46 13 0 26 7 29 16 7 19 -10 44 -29
44 -7 0 -18 -6 -24 -14z"/>
<path d="M1352 2947 c-48 -50 -15 -127 53 -127 46 0 75 29 75 75 0 68 -82 101
-128 52z"/>
<path d="M6414 2956 c-9 -24 4 -48 23 -44 12 2 18 12 18 28 0 29 -32 41 -41
16z"/>
<path d="M892 2940 c-33 -31 -30 -92 4 -119 15 -12 37 -21 49 -21 12 0 34 9
49 21 33 26 37 88 6 119 -26 26 -80 26 -108 0z"/>
<path d="M6662 2938 c-8 -8 -9 -15 -1 -25 18 -21 41 -16 37 9 -4 26 -19 33
-36 16z"/>
<path d="M6903 2929 c-16 -16 -5 -39 17 -39 25 0 35 18 20 35 -15 18 -22 19
-37 4z"/>
<path d="M2656 2909 c-48 -38 -22 -119 38 -119 62 0 93 84 45 122 -28 23 -50
23 -83 -3z"/>
<path d="M7140 2906 c0 -20 5 -26 21 -26 15 0 20 5 17 22 -5 34 -38 37 -38 4z"/>
<path d="M7373 2904 c-8 -21 13 -42 28 -27 13 13 5 43 -11 43 -6 0 -13 -7 -17
-16z"/>
<path d="M7607 2904 c-14 -15 -6 -34 14 -34 14 0 19 5 17 17 -3 18 -20 27 -31
17z"/>
<path d="M7835 2891 c-7 -12 12 -24 25 -16 11 7 4 25 -10 25 -5 0 -11 -4 -15
-9z"/>
<path d="M2142 2867 c-57 -60 8 -154 80 -116 31 16 38 28 38 66 0 65 -75 96
-118 50z"/>
<path d="M8070 2880 c0 -5 5 -10 10 -10 6 0 10 5 10 10 0 6 -4 10 -10 10 -5 0
-10 -4 -10 -10z"/>
<path d="M1652 2837 c-56 -59 6 -146 82 -117 46 17 57 87 20 124 -23 24 -77
20 -102 -7z"/>
<path d="M3016 2844 c-24 -23 -20 -70 6 -88 46 -32 98 -7 98 47 0 34 -24 57
-60 57 -16 0 -36 -7 -44 -16z"/>
<path d="M1186 2829 c-20 -16 -26 -29 -26 -58 0 -48 28 -75 77 -75 68 0 98 80
48 129 -30 30 -64 32 -99 4z"/>
<path d="M724 2816 c-57 -48 -27 -136 46 -136 75 0 109 82 55 135 -31 31 -66
32 -101 1z"/>
<path d="M5712 2828 c-29 -29 3 -82 36 -61 25 15 22 67 -3 71 -11 1 -26 -3
-33 -10z"/>
<path d="M2477 2782 c-22 -25 -21 -75 1 -95 25 -22 75 -21 95 1 22 25 21 75
-1 95 -25 22 -75 21 -95 -1z"/>
<path d="M5979 2784 c-15 -19 -2 -47 26 -52 25 -5 38 13 31 42 -7 30 -36 35
-57 10z"/>
<path d="M1993 2760 c-69 -28 -49 -140 25 -140 45 0 72 25 72 69 0 55 -48 90
-97 71z"/>
<path d="M6252 2758 c-28 -28 -3 -66 33 -52 25 10 12 64 -15 64 -3 0 -11 -5
-18 -12z"/>
<path d="M1495 2728 c-28 -16 -35 -28 -35 -64 0 -67 88 -100 129 -48 28 35 26
69 -4 99 -26 27 -58 31 -90 13z"/>
<path d="M2854 2730 c-26 -10 -37 -50 -25 -83 16 -41 68 -50 101 -17 52 52 -7
129 -76 100z"/>
<path d="M6504 2725 c-8 -21 2 -45 19 -45 8 0 20 7 27 15 10 12 10 18 0 30 -7
8 -19 15 -27 15 -7 0 -16 -7 -19 -15z"/>
<path d="M1006 2698 c-55 -87 38 -175 109 -103 30 30 32 64 4 99 -28 35 -91
37 -113 4z"/>
<path d="M6757 2714 c-4 -4 -7 -16 -7 -26 0 -13 7 -18 26 -18 21 0 25 4 22 22
-3 23 -27 35 -41 22z"/>
<path d="M3248 2694 c-52 -27 -24 -111 33 -102 31 4 58 52 43 75 -21 34 -47
43 -76 27z"/>
<path d="M7000 2695 c-17 -20 -5 -45 20 -45 11 0 23 7 26 15 6 15 -11 45 -26
45 -4 0 -13 -7 -20 -15z"/>
<path d="M5498 2679 c-24 -14 -22 -45 4 -63 29 -21 58 -4 58 33 0 38 -27 51
-62 30z"/>
<path d="M7244 2675 c-7 -18 3 -35 21 -35 15 0 28 27 19 41 -8 14 -34 11 -40
-6z"/>
<path d="M2310 2660 c-41 -41 -12 -120 45 -120 26 0 64 30 66 53 3 32 -4 53
-23 70 -27 23 -63 22 -88 -3z"/>
<path d="M7480 2656 c0 -20 5 -26 21 -26 15 0 20 5 17 22 -5 34 -38 37 -38 4z"/>
<path d="M7713 2654 c-3 -8 -1 -20 5 -26 15 -15 43 8 35 28 -7 19 -32 18 -40
-2z"/>
<path d="M7952 2638 c5 -15 28 -18 29 -3 0 6 -7 12 -17 13 -10 3 -15 -1 -12
-10z"/>
<path d="M1800 2620 c-24 -24 -26 -67 -4 -98 11 -16 25 -22 53 -22 47 0 74 27
73 72 -2 61 -79 91 -122 48z"/>
<path d="M5782 2618 c-28 -28 -1 -75 37 -63 25 8 34 31 21 56 -12 21 -40 25
-58 7z"/>
<path d="M1310 2590 c-45 -45 -11 -120 54 -120 66 0 100 90 49 128 -26 19 -80
15 -103 -8z"/>
<path d="M2667 2592 c-52 -57 23 -142 83 -94 29 24 32 78 5 98 -26 20 -69 17
-88 -4z"/>
<path d="M852 2593 c-7 -3 -19 -18 -28 -35 -12 -23 -13 -36 -4 -63 12 -37 26
-45 74 -45 44 0 65 18 72 62 5 30 2 41 -19 62 -25 25 -62 32 -95 19z"/>
<path d="M6054 2566 c-11 -28 1 -51 25 -51 28 0 47 25 38 49 -8 20 -56 21 -63
2z"/>
<path d="M3058 2559 c-21 -12 -24 -69 -6 -87 7 -7 26 -12 43 -12 40 0 55 16
55 57 0 46 -48 68 -92 42z"/>
<path d="M3466 2554 c-19 -18 -20 -38 -6 -65 21 -39 100 -13 100 34 0 23 -28
47 -55 47 -13 0 -31 -7 -39 -16z"/>
<path d="M2155 2548 c-28 -16 -35 -28 -35 -65 0 -43 24 -65 68 -61 24 2 41 11
55 30 18 24 19 30 7 58 -7 18 -24 36 -37 41 -30 11 -33 11 -58 -3z"/>
<path d="M5255 2540 c-14 -44 18 -80 55 -60 43 23 30 80 -20 80 -20 0 -31 -6
-35 -20z"/>
<path d="M6326 2534 c-20 -19 -5 -54 23 -54 29 0 45 25 31 49 -13 25 -33 27
-54 5z"/>
<path d="M1630 2500 c-23 -23 -26 -76 -7 -101 31 -41 98 -35 123 12 38 74 -57
148 -116 89z"/>
<path d="M6590 2505 c-18 -21 -5 -45 25 -45 20 0 25 5 25 24 0 13 -7 27 -16
30 -21 8 -20 8 -34 -9z"/>
<path d="M1142 2470 c-45 -42 -9 -130 53 -130 33 0 75 42 75 75 0 35 -42 75
-78 75 -15 0 -38 -9 -50 -20z"/>
<path d="M2522 2482 c-12 -2 -30 -14 -38 -28 -14 -20 -14 -29 -4 -54 14 -34
49 -48 89 -34 21 8 27 17 29 47 5 55 -20 78 -76 69z"/>
<path d="M6847 2483 c-13 -12 -7 -44 9 -50 23 -9 48 25 33 44 -12 14 -32 17
-42 6z"/>
<path d="M5562 2468 c-32 -32 8 -80 48 -58 34 18 19 70 -20 70 -9 0 -21 -5
-28 -12z"/>
<path d="M3710 2449 c-17 -31 -4 -68 26 -75 46 -12 85 51 52 84 -20 20 -66 15
-78 -9z"/>
<path d="M5016 2454 c-19 -18 -20 -28 -6 -55 20 -37 80 -18 80 26 0 42 -44 59
-74 29z"/>
<path d="M7097 2463 c-4 -3 -7 -15 -7 -25 0 -13 7 -18 25 -18 20 0 25 5 25 25
0 18 -5 25 -18 25 -10 0 -22 -3 -25 -7z"/>
<path d="M7340 2444 c-11 -12 -11 -18 2 -30 16 -16 48 -9 48 10 0 13 -20 36
-31 36 -4 0 -12 -7 -19 -16z"/>
<path d="M2884 2432 c-6 -4 -16 -17 -23 -30 -24 -46 39 -99 88 -73 49 27 29
111 -27 111 -15 0 -32 -4 -38 -8z"/>
<path d="M7574 2425 c-4 -9 -2 -21 4 -27 16 -16 47 -5 47 17 0 26 -42 34 -51
10z"/>
<path d="M1970 2410 c-23 -23 -26 -68 -6 -95 19 -26 81 -26 101 1 34 44 4 114
-50 114 -14 0 -34 -9 -45 -20z"/>
<path d="M3275 2406 c-19 -29 -7 -62 28 -75 31 -12 53 -3 66 26 27 59 -59 103
-94 49z"/>
<path d="M7818 2418 c-8 -21 2 -38 22 -38 19 0 34 25 24 41 -8 13 -41 11 -46
-3z"/>
<path d="M5844 2395 c-13 -51 46 -77 68 -30 14 30 -3 55 -38 55 -17 0 -25 -7
-30 -25z"/>
<path d="M3967 2393 c-11 -11 -8 -58 5 -71 7 -7 21 -12 33 -12 12 0 26 5 33
12 17 17 15 65 -4 72 -21 8 -59 8 -67 -1z"/>
<path d="M4757 2393 c-4 -3 -7 -19 -7 -35 0 -21 7 -32 25 -40 22 -10 29 -9 47
10 19 18 20 25 10 47 -8 18 -19 25 -40 25 -16 0 -32 -3 -35 -7z"/>
<path d="M1456 2368 c-52 -74 35 -156 105 -100 28 23 30 73 4 102 -26 29 -89
27 -109 -2z"/>
<path d="M985 2358 c-28 -16 -35 -28 -35 -65 0 -43 30 -73 73 -73 69 0 101 77
52 125 -26 27 -58 31 -90 13z"/>
<path d="M4232 2358 c-28 -28 -7 -78 33 -78 27 0 45 18 45 45 0 27 -18 45 -45
45 -12 0 -26 -5 -33 -12z"/>
<path d="M4497 2352 c-21 -23 -21 -36 -1 -56 25 -25 63 -20 74 10 13 32 13 30
-6 48 -21 21 -47 20 -67 -2z"/>
<path d="M6130 2355 c-19 -23 -3 -55 30 -55 32 0 45 22 30 51 -13 23 -43 25
-60 4z"/>
<path d="M2320 2340 c-41 -41 -10 -110 48 -110 36 0 62 28 62 67 0 57 -69 84
-110 43z"/>
<path d="M5326 2345 c-19 -20 -20 -26 -3 -49 27 -38 95 2 71 42 -15 23 -48 27
-68 7z"/>
<path d="M6400 2315 c-18 -22 -1 -50 31 -50 20 0 24 5 24 30 0 23 -5 31 -21
33 -11 2 -27 -4 -34 -13z"/>
<path d="M3526 2307 c-23 -17 -18 -65 9 -83 46 -30 99 40 60 80 -20 19 -45 21
-69 3z"/>
<path d="M1802 2294 c-28 -20 -31 -83 -4 -107 29 -26 77 -22 101 9 27 35 26
55 -4 88 -27 29 -60 33 -93 10z"/>
<path d="M2697 2292 c-51 -56 25 -134 86 -88 24 19 23 82 -2 96 -30 15 -66 12
-84 -8z"/>
<path d="M3102 2280 c-53 -50 4 -124 69 -90 28 15 26 74 -3 94 -29 21 -40 20
-66 -4z"/>
<path d="M6670 2286 c-27 -33 18 -72 48 -42 13 13 14 20 6 34 -15 23 -38 26
-54 8z"/>
<path d="M5631 2266 c-7 -8 -11 -25 -9 -38 2 -18 9 -23 32 -23 36 0 56 27 40
53 -14 22 -48 27 -63 8z"/>
<path d="M1290 2250 c-24 -24 -26 -67 -4 -98 11 -16 25 -22 53 -22 59 0 92 50
66 99 -23 46 -80 56 -115 21z"/>
<path d="M5082 2258 c-31 -31 -3 -82 40 -76 18 2 24 10 26 37 5 46 -36 69 -66
39z"/>
<path d="M6925 2251 c-9 -28 1 -41 31 -41 22 0 25 4 22 28 -4 34 -43 44 -53
13z"/>
<path d="M7180 2231 c-7 -15 -6 -23 5 -35 28 -27 69 10 44 40 -16 20 -37 17
-49 -5z"/>
<path d="M2145 2214 c-38 -39 12 -126 64 -109 49 15 69 76 35 109 -20 21 -78
20 -99 0z"/>
<path d="M3770 2214 c-21 -25 -1 -68 33 -72 16 -2 35 2 43 9 17 14 18 51 2 67
-17 17 -63 15 -78 -4z"/>
<path d="M7434 2215 c-9 -23 4 -47 23 -43 22 4 30 38 11 49 -19 13 -28 11 -34
-6z"/>
<path d="M5926 2208 c-19 -11 -21 -49 -4 -66 18 -18 46 -14 58 8 22 41 -14 80
-54 58z"/>
<path d="M7677 2197 c-8 -21 8 -39 29 -35 27 5 25 42 -2 46 -12 2 -24 -3 -27
-11z"/>
<path d="M4822 2188 c-36 -36 7 -91 54 -69 42 19 26 81 -21 81 -12 0 -26 -5
-33 -12z"/>
<path d="M1614 2147 c-41 -86 78 -149 122 -64 15 27 15 33 0 64 -14 30 -19 33
-61 33 -41 0 -47 -3 -61 -33z"/>
<path d="M2515 2156 c-42 -64 41 -130 95 -76 41 41 13 100 -48 100 -22 0 -36
-7 -47 -24z"/>
<path d="M4028 2154 c-16 -34 0 -58 40 -62 38 -4 57 23 42 62 -14 37 -66 37
-82 0z"/>
<path d="M3331 2146 c-7 -13 -10 -33 -6 -45 15 -47 89 -42 101 6 14 54 -69 88
-95 39z"/>
<path d="M4567 2152 c-38 -42 -2 -96 49 -73 31 14 34 65 5 81 -27 14 -35 13
-54 -8z"/>
<path d="M2917 2142 c-36 -39 -7 -102 45 -102 24 0 58 35 58 60 0 27 -35 60
-63 60 -13 0 -31 -8 -40 -18z"/>
<path d="M4308 2149 c-27 -15 -24 -67 5 -78 46 -18 84 33 51 70 -19 21 -31 23
-56 8z"/>
<path d="M5391 2146 c-7 -8 -11 -25 -9 -38 2 -19 9 -23 37 -23 41 0 62 25 45
53 -14 22 -57 27 -73 8z"/>
<path d="M6206 2147 c-28 -21 -13 -57 24 -57 37 0 52 36 24 57 -10 7 -21 13
-24 13 -3 0 -14 -6 -24 -13z"/>
<path d="M1125 2125 c-34 -33 -33 -77 1 -104 44 -34 86 -26 110 21 26 51 -12
108 -72 108 -8 0 -26 -11 -39 -25z"/>
<path d="M1982 2094 c-28 -19 -30 -74 -4 -97 25 -23 68 -21 92 3 58 58 -20
142 -88 94z"/>
<path d="M6477 2104 c-13 -14 -7 -43 12 -53 24 -13 55 8 50 35 -4 19 -48 32
-62 18z"/>
<path d="M3592 2064 c-27 -18 -29 -55 -4 -77 24 -22 45 -21 65 1 23 26 21 58
-5 76 -12 9 -25 16 -28 16 -3 0 -16 -7 -28 -16z"/>
<path d="M5698 2069 c-25 -14 -23 -56 2 -69 46 -25 88 23 54 61 -19 21 -31 23
-56 8z"/>
<path d="M6750 2065 c-18 -22 -8 -50 19 -50 32 0 49 28 32 49 -17 20 -35 20
-51 1z"/>
<path d="M5146 2054 c-9 -8 -16 -22 -16 -29 0 -19 28 -45 49 -45 40 0 57 61
22 80 -27 14 -37 13 -55 -6z"/>
<path d="M1454 2034 c-30 -29 -27 -67 8 -96 44 -38 108 -7 108 52 0 65 -70 91
-116 44z"/>
<path d="M2352 2044 c-15 -10 -22 -25 -22 -48 0 -64 70 -90 109 -40 27 34 26
50 -4 79 -28 29 -51 31 -83 9z"/>
<path d="M7012 2033 c-13 -26 -4 -43 24 -43 29 0 41 24 24 45 -17 20 -37 19
-48 -2z"/>
<path d="M2750 2017 c-31 -15 -39 -66 -15 -91 22 -21 68 -20 88 2 46 50 -12
120 -73 89z"/>
<path d="M3163 2020 c-50 -20 -30 -100 25 -100 16 0 33 5 40 12 13 13 16 57 4
74 -11 17 -44 24 -69 14z"/>
<path d="M7265 2010 c-12 -20 6 -51 28 -48 31 4 31 52 0 56 -11 2 -24 -2 -28
-8z"/>
<path d="M3858 2003 c-22 -5 -35 -50 -21 -72 13 -20 50 -26 69 -11 19 16 18
55 -2 74 -16 17 -17 17 -46 9z"/>
<path d="M5992 1998 c-36 -36 6 -91 46 -62 27 19 28 36 4 57 -22 20 -34 21
-50 5z"/>
<path d="M4892 1988 c-30 -30 -3 -82 40 -76 29 4 47 50 28 72 -15 19 -51 21
-68 4z"/>
<path d="M7520 1975 c0 -31 26 -43 47 -22 13 13 14 19 3 31 -21 26 -50 20 -50
-9z"/>
<path d="M1818 1976 c-34 -17 -38 -88 -6 -110 30 -21 50 -20 82 5 62 49 -4
141 -76 105z"/>
<path d="M4102 1948 c-28 -28 -7 -78 33 -78 27 0 45 18 45 45 0 27 -18 45 -45
45 -12 0 -26 -5 -33 -12z"/>
<path d="M4626 1939 c-24 -34 -3 -69 42 -69 14 0 26 9 33 24 24 53 -41 92 -75
45z"/>
<path d="M5448 1935 c-10 -22 -9 -29 10 -47 18 -19 25 -20 47 -10 16 8 25 20
25 35 0 50 -62 66 -82 22z"/>
<path d="M4372 1934 c-27 -19 -28 -45 -2 -69 17 -15 24 -16 45 -7 32 15 35 66
6 82 -25 13 -22 13 -49 -6z"/>
<path d="M6276 1937 c-23 -17 -14 -53 15 -62 38 -12 65 35 37 63 -16 16 -30
15 -52 -1z"/>
<path d="M1286 1919 c-42 -33 -31 -100 20 -119 36 -14 68 -3 88 30 43 74 -40
143 -108 89z"/>
<path d="M2184 1922 c-49 -33 -26 -122 33 -122 30 0 63 34 63 65 0 46 -60 82
-96 57z"/>
<path d="M3392 1908 c-7 -7 -12 -24 -12 -38 0 -33 17 -50 50 -50 33 0 50 17
50 50 0 33 -17 50 -50 50 -14 0 -31 -5 -38 -12z"/>
<path d="M6551 1886 c-18 -22 4 -58 32 -54 31 4 32 62 1 66 -11 2 -26 -4 -33
-12z"/>
<path d="M2551 1871 c-42 -77 57 -140 105 -66 13 21 14 28 2 52 -11 23 -20 29
-55 31 -33 2 -44 -1 -52 -17z"/>
<path d="M2966 1874 c-19 -18 -21 -65 -4 -82 7 -7 26 -12 43 -12 38 0 55 16
55 51 0 34 -24 59 -55 59 -13 0 -31 -7 -39 -16z"/>
<path d="M5218 1859 c-22 -12 -23 -52 -3 -69 8 -7 25 -10 40 -6 19 5 25 13 25
34 0 45 -26 62 -62 41z"/>
<path d="M5762 1858 c-25 -25 -7 -68 29 -68 25 0 42 26 35 55 -7 27 -42 35
-64 13z"/>
<path d="M1642 1853 c-7 -3 -18 -16 -23 -30 -29 -77 67 -131 117 -65 43 56
-24 123 -94 95z"/>
<path d="M6821 1847 c-15 -19 -5 -44 21 -53 26 -8 41 7 36 37 -4 28 -39 37
-57 16z"/>
<path d="M3640 1810 c-6 -12 -8 -30 -5 -40 7 -24 52 -37 74 -23 20 13 26 50
11 69 -19 21 -67 18 -80 -6z"/>
<path d="M7091 1816 c-15 -17 1 -56 23 -56 23 0 41 30 29 48 -14 23 -37 26
-52 8z"/>
<path d="M1996 1778 c-30 -42 -13 -91 35 -103 54 -13 96 65 59 109 -19 24 -76
20 -94 -6z"/>
<path d="M4949 1779 c-16 -30 3 -69 34 -69 29 0 47 17 47 45 0 45 -60 63 -81
24z"/>
<path d="M6054 1786 c-12 -32 0 -61 28 -64 32 -4 50 22 37 56 -10 25 -56 31
-65 8z"/>
<path d="M7357 1793 c-4 -3 -7 -17 -7 -30 0 -18 6 -23 24 -23 30 0 40 13 31
40 -6 19 -35 27 -48 13z"/>
<path d="M3912 1764 c-27 -18 -28 -45 -4 -67 35 -32 72 -14 72 35 0 17 -7 31
-19 38 -25 13 -22 13 -49 -6z"/>
<path d="M3206 1754 c-22 -21 -20 -50 5 -75 22 -22 55 -19 77 9 39 50 -37 111
-82 66z"/>
<path d="M2380 1745 c-18 -22 -15 -62 5 -85 49 -54 120 15 85 81 -13 23 -72
26 -90 4z"/>
<path d="M4695 1740 c-36 -40 9 -95 57 -69 25 13 24 65 -1 79 -27 14 -35 13
-56 -10z"/>
<path d="M5522 1748 c-21 -21 -14 -57 13 -70 22 -10 29 -9 47 10 19 18 20 25
10 47 -13 27 -49 34 -70 13z"/>
<path d="M2776 1728 c-22 -31 -20 -51 7 -76 47 -44 105 -11 98 55 -4 43 -79
58 -105 21z"/>
<path d="M4170 1730 c-11 -11 -20 -23 -20 -28 0 -18 33 -52 50 -52 17 0 50 34
50 52 0 11 -38 48 -50 48 -5 0 -19 -9 -30 -20z"/>
<path d="M1466 1716 c-33 -32 -33 -60 -1 -91 13 -14 34 -25 45 -25 26 0 70 43
70 68 0 28 -30 60 -62 68 -21 4 -33 0 -52 -20z"/>
<path d="M4438 1729 c-26 -14 -23 -65 3 -79 16 -9 26 -8 45 5 29 19 32 60 5
75 -24 12 -31 12 -53 -1z"/>
<path d="M6340 1721 c-20 -38 13 -71 51 -51 21 12 25 40 7 58 -18 18 -46 14
-58 -7z"/>
<path d="M6626 1675 c-19 -20 -20 -27 -4 -43 32 -32 84 0 61 37 -14 22 -38 25
-57 6z"/>
<path d="M1825 1655 c-27 -26 -31 -46 -14 -76 16 -31 55 -42 90 -24 25 13 29
21 29 55 0 66 -59 92 -105 45z"/>
<path d="M3462 1664 c-41 -29 -23 -84 28 -84 32 0 50 17 50 46 0 20 -32 54
-50 54 -3 0 -16 -7 -28 -16z"/>
<path d="M5268 1644 c-14 -31 -1 -57 31 -62 28 -4 51 14 51 42 0 50 -62 65
-82 20z"/>
<path d="M5820 1651 c-16 -31 4 -63 37 -59 34 4 52 32 37 56 -16 26 -60 28
-74 3z"/>
<path d="M6894 1626 c-11 -28 4 -48 33 -44 22 2 28 8 28 28 0 20 -6 26 -28 28
-18 2 -29 -2 -33 -12z"/>
<path d="M2197 1603 c-33 -66 42 -124 93 -73 41 41 13 100 -48 100 -24 0 -35
-6 -45 -27z"/>
<path d="M3014 1595 c-15 -23 -15 -27 0 -50 27 -40 96 -25 96 21 0 55 -66 75
-96 29z"/>
<path d="M2608 1599 c-26 -15 -24 -75 3 -89 30 -17 62 -8 78 21 13 24 13 29
-2 53 -18 27 -49 33 -79 15z"/>
<path d="M7170 1595 c-25 -30 15 -70 45 -45 20 16 19 46 -1 54 -23 9 -30 8
-44 -9z"/>
<path d="M3712 1588 c-13 -13 -15 -37 -6 -62 7 -19 55 -21 72 -4 28 28 7 78
-33 78 -12 0 -26 -5 -33 -12z"/>
<path d="M5022 1588 c-28 -28 -7 -78 33 -78 42 0 59 44 29 74 -18 19 -45 21
-62 4z"/>
<path d="M6126 1585 c-21 -22 -20 -38 3 -59 28 -25 61 -6 61 34 0 17 -4 30 -9
30 -5 0 -16 3 -24 6 -8 3 -22 -2 -31 -11z"/>
<path d="M5586 1544 c-20 -19 -20 -24 0 -52 26 -37 74 -23 74 23 0 42 -44 59
-74 29z"/>
<path d="M1650 1528 c-11 -12 -20 -31 -20 -43 0 -31 36 -65 69 -65 35 0 61 28
61 67 0 58 -69 85 -110 41z"/>
<path d="M3967 1543 c-11 -11 -8 -58 5 -71 28 -28 78 -7 78 33 0 12 -5 26 -12
33 -13 13 -60 16 -71 5z"/>
<path d="M4756 1534 c-18 -46 7 -81 49 -70 29 7 44 49 25 71 -17 20 -66 19
-74 -1z"/>
<path d="M4230 1516 c-15 -19 -9 -56 11 -69 9 -5 28 -7 42 -3 48 12 32 86 -19
86 -12 0 -27 -7 -34 -14z"/>
<path d="M4495 1510 c-15 -17 -16 -24 -7 -45 16 -34 69 -36 81 -2 21 55 -35
90 -74 47z"/>
<path d="M6409 1514 c-19 -23 1 -49 37 -49 23 0 30 5 32 24 6 39 -43 56 -69
25z"/>
<path d="M3266 1504 c-19 -18 -21 -55 -4 -72 7 -7 24 -12 38 -12 34 0 50 17
50 52 0 43 -53 64 -84 32z"/>
<path d="M2036 1489 c-48 -38 -24 -109 37 -109 33 0 70 45 61 74 -7 24 -40 56
-59 56 -7 0 -24 -9 -39 -21z"/>
<path d="M2426 1465 c-25 -26 -17 -76 15 -94 24 -13 29 -13 53 2 26 18 35 58
18 84 -14 22 -67 27 -86 8z"/>
<path d="M2836 1464 c-31 -31 -7 -94 35 -94 26 0 59 30 59 54 0 47 -62 73 -94
40z"/>
<path d="M6702 1471 c-8 -4 -12 -19 -10 -32 2 -19 9 -24 33 -24 33 0 45 25 25
50 -14 17 -29 19 -48 6z"/>
<path d="M5340 1456 c-28 -35 11 -93 48 -70 21 14 28 64 10 75 -20 13 -44 11
-58 -5z"/>
<path d="M5890 1455 c-17 -20 -5 -62 21 -70 22 -7 59 18 59 40 0 16 -33 45
-52 45 -9 0 -21 -7 -28 -15z"/>
<path d="M3509 1409 c-17 -33 3 -69 39 -69 33 0 52 16 52 45 0 29 -19 45 -52
45 -18 0 -31 -7 -39 -21z"/>
<path d="M6977 1423 c-13 -12 -7 -51 8 -57 32 -12 61 17 49 49 -6 15 -45 21
-57 8z"/>
<path d="M5086 1384 c-19 -18 -20 -28 -6 -55 20 -37 80 -18 80 26 0 42 -44 59
-74 29z"/>
<path d="M6193 1384 c-7 -3 -13 -16 -13 -29 0 -44 50 -60 74 -22 20 32 -22 67
-61 51z"/>
<path d="M1854 1354 c-43 -42 -15 -104 46 -104 56 0 79 68 37 108 -30 29 -52
28 -83 -4z"/>
<path d="M3077 1352 c-22 -24 -21 -55 1 -75 22 -20 42 -21 64 -4 28 21 31 54
9 76 -26 26 -53 27 -74 3z"/>
<path d="M3770 1356 c-15 -19 -9 -56 11 -69 41 -26 91 22 68 65 -12 22 -61 24
-79 4z"/>
<path d="M5652 1348 c-39 -39 17 -100 58 -63 25 23 26 51 1 65 -26 13 -44 13
-59 -2z"/>
<path d="M2258 1339 c-46 -26 -45 -80 0 -103 32 -16 66 -7 81 23 16 29 14 39
-14 66 -26 27 -40 30 -67 14z"/>
<path d="M4818 1326 c-20 -45 8 -74 57 -62 20 5 25 12 25 40 0 22 -6 36 -16
40 -31 12 -55 6 -66 -18z"/>
<path d="M2644 1315 c-9 -14 -13 -32 -9 -45 15 -47 86 -50 107 -5 27 59 -62
105 -98 50z"/>
<path d="M4037 1322 c-22 -24 -21 -45 1 -65 48 -43 108 17 63 62 -26 26 -43
26 -64 3z"/>
<path d="M4571 1314 c-29 -21 -28 -61 3 -75 34 -16 66 3 66 40 0 37 -38 56
-69 35z"/>
<path d="M6486 1314 c-29 -29 -15 -64 25 -64 23 0 30 6 35 27 5 19 2 30 -11
40 -24 17 -30 16 -49 -3z"/>
<path d="M4308 1309 c-28 -16 -23 -67 7 -81 46 -21 86 40 49 76 -18 18 -32 20
-56 5z"/>
<path d="M3322 1258 c-27 -27 0 -88 40 -88 36 0 62 62 36 88 -15 15 -61 15
-76 0z"/>
<path d="M5408 1259 c-10 -5 -18 -21 -18 -35 0 -30 42 -54 68 -37 24 15 27 54
6 70 -21 15 -33 16 -56 2z"/>
<path d="M5962 1258 c-17 -17 -15 -53 3 -68 24 -20 65 3 65 34 0 37 -44 58
-68 34z"/>
<path d="M6770 1255 c-20 -25 -8 -50 25 -50 21 0 31 5 33 18 4 21 -14 47 -33
47 -7 0 -18 -7 -25 -15z"/>
<path d="M2070 1202 c-42 -34 -17 -112 35 -112 29 0 65 35 65 64 0 28 -34 66
-59 66 -10 0 -29 -8 -41 -18z"/>
<path d="M2894 1213 c-19 -13 -26 -51 -14 -73 9 -17 19 -20 47 -18 45 4 61 26
47 65 -7 21 -17 29 -39 31 -17 1 -35 -1 -41 -5z"/>
<path d="M2463 1174 c-15 -24 -15 -29 -2 -53 28 -51 99 -35 99 22 0 40 -15 57
-52 57 -19 0 -33 -8 -45 -26z"/>
<path d="M3575 1180 c-37 -40 19 -95 64 -63 23 16 28 52 9 71 -18 18 -53 14
-73 -8z"/>
<path d="M5158 1189 c-11 -6 -18 -22 -18 -39 0 -23 5 -31 24 -36 52 -13 86 35
50 70 -18 18 -32 20 -56 5z"/>
<path d="M6260 1176 c-19 -23 -8 -61 18 -64 44 -7 67 32 36 62 -19 20 -38 20
-54 2z"/>
<path d="M5722 1148 c-17 -17 -15 -53 3 -68 12 -10 21 -10 40 -2 40 19 29 82
-15 82 -9 0 -21 -5 -28 -12z"/>
<path d="M3842 1138 c-22 -22 -14 -67 13 -80 21 -9 28 -8 45 7 25 23 26 61 1
75 -26 13 -44 13 -59 -2z"/>
<path d="M4898 1139 c-28 -16 -23 -67 7 -81 21 -9 28 -8 45 7 25 23 26 61 1
75 -24 12 -31 12 -53 -1z"/>
<path d="M3138 1109 c-27 -16 -23 -65 7 -85 23 -15 27 -15 50 0 27 18 34 63
13 84 -15 15 -47 15 -70 1z"/>
<path d="M4106 1107 c-12 -9 -17 -23 -14 -42 3 -28 6 -30 43 -30 37 0 40 2 43
30 4 29 -17 55 -43 55 -6 0 -19 -6 -29 -13z"/>
<path d="M4626 1099 c-22 -32 -6 -63 33 -67 25 -3 33 2 43 22 9 22 8 29 -7 46
-23 26 -50 25 -69 -1z"/>
<path d="M6552 1108 c-25 -25 -6 -68 30 -68 26 0 45 44 28 65 -15 18 -41 20
-58 3z"/>
<path d="M4378 1103 c-29 -7 -34 -51 -10 -76 18 -18 25 -19 47 -9 32 15 35 66
6 82 -11 5 -21 9 -23 9 -2 -1 -11 -3 -20 -6z"/>
<path d="M2707 1062 c-19 -21 -21 -45 -7 -73 21 -39 100 -12 100 34 0 23 -35
57 -58 57 -11 0 -26 -8 -35 -18z"/>
<path d="M2291 1051 c-26 -26 -27 -55 -1 -81 38 -38 93 -16 93 39 0 37 -8 47
-45 56 -19 5 -32 1 -47 -14z"/>
<path d="M5472 1058 c-21 -21 -14 -57 14 -70 23 -11 29 -10 45 11 17 21 18 26
6 45 -17 25 -47 32 -65 14z"/>
<path d="M6038 1063 c-20 -5 -31 -33 -22 -56 15 -39 88 -25 82 15 -4 25 -36
47 -60 41z"/>
<path d="M3385 1020 c-27 -29 -10 -74 28 -78 37 -4 57 13 57 49 0 47 -53 65
-85 29z"/>
<path d="M5209 979 c-16 -30 3 -69 34 -69 29 0 47 17 47 45 0 45 -60 63 -81
24z"/>
<path d="M6320 965 c-20 -24 -3 -55 30 -55 34 0 53 26 39 52 -12 22 -52 24
-69 3z"/>
<path d="M2947 952 c-36 -39 -15 -82 40 -82 26 0 36 5 42 23 21 56 -43 102
-82 59z"/>
<path d="M3642 958 c-7 -7 -12 -21 -12 -33 0 -29 19 -45 52 -45 36 0 56 36 39
69 -13 23 -59 29 -79 9z"/>
<path d="M5782 948 c-19 -19 -14 -56 8 -68 43 -23 83 17 60 60 -12 22 -49 27
-68 8z"/>
<path d="M4962 934 c-42 -29 -19 -78 35 -72 23 2 29 9 31 33 3 19 -2 33 -14
42 -22 16 -25 16 -52 -3z"/>
<path d="M2508 905 c-18 -40 3 -75 45 -75 38 0 57 15 57 46 0 43 -10 54 -51
54 -32 0 -41 -5 -51 -25z"/>
<path d="M3907 912 c-22 -25 -21 -45 3 -67 29 -26 70 -7 70 33 0 50 -41 69
-73 34z"/>
<path d="M4692 898 c-34 -34 4 -86 54 -74 19 5 24 13 24 40 0 34 -13 46 -49
46 -9 0 -22 -5 -29 -12z"/>
<path d="M4158 875 c-9 -21 -8 -28 7 -45 10 -11 26 -20 35 -20 9 0 25 9 35 20
27 30 7 70 -35 70 -23 0 -33 -6 -42 -25z"/>
<path d="M4438 889 c-28 -16 -23 -67 7 -81 21 -9 28 -8 45 7 25 23 26 61 1 75
-24 12 -31 12 -53 -1z"/>
<path d="M3197 862 c-34 -37 -15 -82 33 -82 32 0 50 17 50 46 0 48 -52 70 -83
36z"/>
<path d="M5530 855 c-17 -20 -5 -62 20 -70 44 -14 80 41 48 73 -17 17 -53 15
-68 -3z"/>
<path d="M6108 863 c-23 -6 -34 -49 -18 -68 26 -31 70 -11 70 32 0 25 -25 42
-52 36z"/>
<path d="M2753 794 c-15 -24 -15 -29 -2 -53 18 -32 54 -39 80 -15 37 34 14 94
-36 94 -15 0 -31 -10 -42 -26z"/>
<path d="M3446 781 c-32 -35 4 -87 52 -74 26 6 40 48 25 72 -15 24 -56 25 -77
2z"/>
<path d="M5282 788 c-7 -7 -12 -21 -12 -33 0 -44 60 -63 80 -26 14 27 13 37
-6 55 -18 19 -45 21 -62 4z"/>
<path d="M5852 751 c-18 -11 -11 -61 11 -75 22 -14 51 3 55 33 6 40 -32 64
-66 42z"/>
<path d="M3704 725 c-15 -23 -15 -27 0 -50 19 -29 47 -32 70 -9 21 21 20 47
-2 67 -26 24 -49 21 -68 -8z"/>
<path d="M5028 736 c-25 -19 -23 -63 3 -77 51 -27 94 36 51 74 -22 20 -31 21
-54 3z"/>
<path d="M3006 704 c-32 -31 -11 -84 32 -84 35 0 52 17 52 52 0 43 -53 64 -84
32z"/>
<path d="M3971 696 c-7 -8 -11 -27 -9 -43 3 -24 8 -28 40 -31 33 -3 38 0 44
24 4 15 2 34 -3 43 -13 21 -57 26 -72 7z"/>
<path d="M4761 696 c-7 -8 -11 -27 -9 -43 3 -25 7 -28 37 -28 43 0 60 23 43
59 -13 29 -52 35 -71 12z"/>
<path d="M4238 679 c-25 -14 -22 -55 3 -73 30 -21 69 -2 69 34 0 44 -33 62
-72 39z"/>
<path d="M4496 674 c-22 -21 -20 -50 5 -67 38 -27 88 8 72 50 -13 35 -51 44
-77 17z"/>
<path d="M5594 643 c-14 -54 41 -85 71 -39 22 32 3 66 -37 66 -22 0 -29 -6
-34 -27z"/>
<path d="M3272 633 c-44 -18 -32 -93 16 -93 51 0 71 50 34 83 -19 17 -28 19
-50 10z"/>
<path d="M5354 592 c-34 -23 -20 -82 19 -82 29 0 47 18 47 45 0 36 -37 57 -66
37z"/>
<path d="M3518 559 c-45 -26 5 -104 51 -80 29 16 36 49 15 72 -19 21 -40 24
-66 8z"/>
<path d="M5080 520 c-9 -17 -8 -26 5 -46 29 -45 80 -22 73 33 -2 23 -8 29 -35
31 -24 2 -34 -2 -43 -18z"/>
<path d="M3770 506 c-15 -19 -9 -56 11 -69 9 -5 28 -7 42 -3 23 5 27 12 27 40
0 34 -13 46 -50 46 -9 0 -23 -7 -30 -14z"/>
<path d="M4832 494 c-27 -18 -28 -45 -4 -67 35 -32 72 -14 72 35 0 17 -7 31
-19 38 -25 13 -22 13 -49 -6z"/>
<path d="M4030 476 c-15 -19 -9 -56 11 -69 23 -14 66 -1 72 22 11 45 -53 82
-83 47z"/>
<path d="M4308 469 c-28 -16 -23 -67 7 -81 21 -9 28 -8 45 7 25 23 26 47 2 68
-21 19 -30 20 -54 6z"/>
<path d="M4562 468 c-28 -28 -7 -78 33 -78 29 0 45 19 45 51 0 37 -51 54 -78
27z"/>
</g>
</svg>
