<svg width="64" height="64" viewBox="0 0 64 64" fill="none" xmlns="http://www.w3.org/2000/svg">
<mask id="mask0_501_124" style="mask-type:alpha" maskUnits="userSpaceOnUse" x="0" y="0" width="64" height="64">
<path d="M22.4 0C10.0667 0 0 10.0667 0 22.4C0 34.7333 10.0667 44.8 22.4 44.8C27.9936 44.8 33.104 42.7137 37.0375 39.3L38.4 40.6625V44.8L57.6 64L64 57.6L44.8 38.4H40.6625L39.3 37.0375C42.7137 33.104 44.8 27.9936 44.8 22.4C44.8 10.0667 34.7333 0 22.4 0ZM22.4 6.4C31.2745 6.4 38.4 13.5255 38.4 22.4C38.4 31.2745 31.2745 38.4 22.4 38.4C13.5255 38.4 6.4 31.2745 6.4 22.4C6.4 13.5255 13.5255 6.4 22.4 6.4Z" fill="#E5DEFF"/>
</mask>
<g mask="url(#mask0_501_124)">
<rect x="-23.7037" y="-20.1481" width="106.667" height="91.2593" fill="#6251A2"/>
</g>
</svg>
