<svg width="44" height="35" viewBox="0 0 44 35" fill="none" xmlns="http://www.w3.org/2000/svg">
<path d="M43.0804 4.78187C42.5744 2.90062 41.0828 1.4175 39.1908 0.914375C35.7588 4.56348e-07 22 0 22 0C22 0 8.2412 4.56348e-07 4.8092 0.914375C2.9172 1.4175 1.4256 2.90062 0.9196 4.78187C-6.55651e-08 8.19438 0 17.5 0 17.5C0 17.5 -6.55651e-08 26.8056 0.9196 30.2181C1.4256 32.0994 2.9172 33.5825 4.8092 34.0856C8.2412 35 22 35 22 35C22 35 35.7588 35 39.1908 34.0856C41.085 33.5825 42.5744 32.0994 43.0804 30.2181C44 26.8056 44 17.5 44 17.5C44 17.5 44 8.19438 43.0804 4.78187ZM17.6 25.0775V9.9225L30.8 17.5L17.6 25.0775Z" fill="#CCCCCC"/>
</svg>
